STARTFONT 2.1
COMMENT
COMMENT Converted from OpenType font "FontAwesome5Free-Regular-400.otf" by "otf2bdf 3.0".
COMMENT
FONT -FreeType-Font Awesome 5 Free Regular-Medium-R-Normal--39-280-100-100-P-306-ISO10646-1
SIZE 28 100 100
FONTBOUNDINGBOX 51 39 -2 -5
STARTPROPERTIES 19
FOUNDRY "FreeType"
FAMILY_NAME "Font Awesome 5 Free Regular"
WEIGHT_NAME "Medium"
SLANT "R"
SETWIDTH_NAME "Normal"
ADD_STYLE_NAME ""
PIXEL_SIZE 39
POINT_SIZE 280
RESOLUTION_X 100
RESOLUTION_Y 100
SPACING "P"
AVERAGE_WIDTH 306
CHARSET_REGISTRY "ISO10646"
CHARSET_ENCODING "1"
FONT_ASCENT 34
FONT_DESCENT 4
COPYRIGHT "Font Awesome"
_OTF_FONTFILE "FontAwesome5Free-Regular-400.otf"
_OTF_PSNAME "FontAwesome5FreeRegular"
ENDPROPERTIES
CHARS 182
STARTCHAR 0020
ENCODING 32
SWIDTH 385 0
DWIDTH 15 0
BBX 0 0 0 0
BITMAP
ENDCHAR
STARTCHAR 002D
ENCODING 45
SWIDTH 437 0
DWIDTH 17 0
BBX 11 3 3 13
BITMAP
FFE0
FFE0
FFE0
ENDCHAR
STARTCHAR 002E
ENCODING 46
SWIDTH 231 0
DWIDTH 9 0
BBX 5 4 2 4
BITMAP
F8
F8
F8
F8
ENDCHAR
STARTCHAR 0030
ENCODING 48
SWIDTH 591 0
DWIDTH 23 0
BBX 19 28 2 4
BITMAP
03F800
0FFE00
1FFF00
3E0780
3C0380
7801C0
7001C0
7001E0
F000E0
F000E0
E000E0
E000E0
E000E0
E000E0
E000E0
E000E0
E000E0
E000E0
F000E0
F000E0
7001E0
7001C0
7801C0
3803C0
3E0780
1FFF00
0FFE00
03F800
ENDCHAR
STARTCHAR 0031
ENCODING 49
SWIDTH 642 0
DWIDTH 25 0
BBX 15 28 5 4
BITMAP
0180
0780
0F80
3F80
7F80
F380
E380
8380
0380
0380
0380
0380
0380
0380
0380
0380
0380
0380
0380
0380
0380
0380
0380
0380
0380
FFFE
FFFE
FFFE
ENDCHAR
STARTCHAR 0032
ENCODING 50
SWIDTH 617 0
DWIDTH 24 0
BBX 18 28 3 4
BITMAP
07F000
3FFC00
7FFE00
F80F00
E00700
800780
000380
000380
000380
000780
000700
000F00
000E00
001E00
003C00
007800
00F800
00F000
01E000
03C000
078000
0F0000
1E0000
3C0000
780000
FFFFC0
FFFFC0
FFFFC0
ENDCHAR
STARTCHAR 0033
ENCODING 51
SWIDTH 591 0
DWIDTH 23 0
BBX 19 28 2 4
BITMAP
03F800
1FFE00
3FFF00
7C0780
700380
0003C0
0001C0
0001C0
0001C0
0003C0
000380
000F00
03FE00
03FC00
03FF00
000F80
0003C0
0001C0
0001C0
0001C0
0001E0
0001C0
4001C0
6003C0
F80780
7FFF80
1FFE00
07F800
ENDCHAR
STARTCHAR 0034
ENCODING 52
SWIDTH 617 0
DWIDTH 24 0
BBX 20 28 2 4
BITMAP
000700
000F00
000F00
001F00
003F00
007F00
007700
00E700
01E700
01C700
038700
078700
070700
0E0700
1E0700
1C0700
380700
780700
700700
FFFFF0
FFFFF0
FFFFF0
000700
000700
000700
000700
000700
000700
ENDCHAR
STARTCHAR 0035
ENCODING 53
SWIDTH 617 0
DWIDTH 24 0
BBX 18 28 3 4
BITMAP
7FFF80
7FFF80
7FFF80
700000
700000
700000
700000
700000
700000
700000
70F000
77FC00
7FFF00
7E0F80
780780
7003C0
0001C0
0001C0
0001C0
0001C0
0001C0
0001C0
4003C0
E00380
F80F80
7FFF00
1FFE00
07F800
ENDCHAR
STARTCHAR 0036
ENCODING 54
SWIDTH 617 0
DWIDTH 24 0
BBX 19 28 2 4
BITMAP
01FC00
07FF80
0FFFC0
1F03E0
3C00E0
3C0000
780000
700000
700000
700000
F07800
E3FE00
E7FF80
EF07C0
EC03C0
F801E0
F800E0
F000E0
F000E0
7000E0
7000E0
7800E0
3801E0
3C01C0
1E03C0
0FFF80
07FF00
01FC00
ENDCHAR
STARTCHAR 0037
ENCODING 55
SWIDTH 591 0
DWIDTH 23 0
BBX 19 28 2 4
BITMAP
FFFFE0
FFFFE0
FFFFE0
0001C0
0003C0
000380
000780
000700
000F00
000E00
001E00
001C00
003C00
003800
007800
007000
00F000
00E000
01E000
01C000
03C000
038000
078000
070000
0F0000
0E0000
1E0000
1C0000
ENDCHAR
STARTCHAR 0038
ENCODING 56
SWIDTH 591 0
DWIDTH 23 0
BBX 20 28 2 4
BITMAP
03F800
0FFF00
3FFF80
7C07C0
7801C0
7001E0
F000E0
F000E0
F000E0
7001E0
7801C0
3C07C0
1F1F00
07FC00
1FFF00
3E0F80
7803C0
F000E0
E000E0
E000E0
E000F0
E000E0
E000E0
F001E0
7803C0
3FFF80
1FFF00
03FC00
ENDCHAR
STARTCHAR 0039
ENCODING 57
SWIDTH 591 0
DWIDTH 23 0
BBX 19 28 2 4
BITMAP
03F000
0FFC00
3FFF00
3C0F80
780380
F003C0
E001C0
E001E0
E001E0
E001E0
E001E0
F001E0
7003E0
7807E0
3C0EE0
1FFCE0
0FF8E0
01C0E0
0000E0
0001E0
0001C0
0001C0
000380
E00780
F80F00
7FFE00
3FFC00
07F000
ENDCHAR
STARTCHAR 0040
ENCODING 64
SWIDTH 925 0
DWIDTH 36 0
BBX 32 34 2 -2
BITMAP
000FF800
007FFF00
01FE1FC0
03E001E0
07800070
0E000038
1C00001C
3800000E
3803E306
700FF307
701E3B07
60380F03
E0700F03
E0700703
E0600603
C0E00603
C0E00603
C0E00E03
E0E00E07
E0E00E07
E0E01E06
E0703E0E
60786E1C
703FC7F8
701F83F0
38000000
38000000
1C000000
0E000038
07000070
03C001E0
01FC0FC0
007FFF80
000FFC00
ENDCHAR
STARTCHAR 0041
ENCODING 65
SWIDTH 745 0
DWIDTH 29 0
BBX 27 28 1 4
BITMAP
000E0000
001E0000
001F0000
003F0000
003B8000
007B8000
00738000
0071C000
00E1C000
00E0E000
01C0E000
01C07000
03C07000
03807800
03803800
07003800
07001C00
0E001C00
0FFFFE00
1FFFFE00
1FFFFF00
3C000700
38000700
38000380
70000380
700001C0
F00001C0
E00001E0
ENDCHAR
STARTCHAR 0042
ENCODING 66
SWIDTH 720 0
DWIDTH 28 0
BBX 21 28 3 4
BITMAP
FFFE00
FFFFC0
FFFFE0
F001E0
F000F0
F00070
F00070
F00070
F00070
F00070
F000F0
F001E0
FFFFC0
FFFF00
FFFFC0
F001F0
F00070
F00078
F00038
F00038
F00038
F00038
F00038
F00078
F000F0
FFFFE0
FFFFC0
FFFF00
ENDCHAR
STARTCHAR 0043
ENCODING 67
SWIDTH 694 0
DWIDTH 27 0
BBX 23 28 2 4
BITMAP
007F80
01FFF0
07FFF8
0F807E
1F001C
1C0004
3C0000
380000
780000
700000
700000
700000
F00000
F00000
F00000
F00000
700000
700000
700000
780000
380000
3C0000
1C0004
1E000C
0F807E
07FFFC
01FFF0
007F80
ENDCHAR
STARTCHAR 0044
ENCODING 68
SWIDTH 771 0
DWIDTH 30 0
BBX 24 28 3 4
BITMAP
FFFC00
FFFF80
FFFFE0
F003F0
F000F8
F00038
F0003C
F0001E
F0001E
F0000E
F0000E
F0000F
F0000F
F0000F
F0000F
F0000F
F0000F
F0000E
F0000E
F0001E
F0001E
F0003C
F0003C
F000F8
F003F0
FFFFE0
FFFF80
FFFC00
ENDCHAR
STARTCHAR 0045
ENCODING 69
SWIDTH 617 0
DWIDTH 24 0
BBX 18 28 3 4
BITMAP
FFFFC0
FFFFC0
FFFFC0
F00000
F00000
F00000
F00000
F00000
F00000
F00000
F00000
F00000
FFFF80
FFFF80
FFFF80
F00000
F00000
F00000
F00000
F00000
F00000
F00000
F00000
F00000
F00000
FFFFC0
FFFFC0
FFFFC0
ENDCHAR
STARTCHAR 0046
ENCODING 70
SWIDTH 617 0
DWIDTH 24 0
BBX 18 28 3 4
BITMAP
FFFFC0
FFFFC0
FFFFC0
F00000
F00000
F00000
F00000
F00000
F00000
F00000
F00000
F00000
FFFF80
FFFF80
FFFF80
F00000
F00000
F00000
F00000
F00000
F00000
F00000
F00000
F00000
F00000
F00000
F00000
F00000
ENDCHAR
STARTCHAR 0047
ENCODING 71
SWIDTH 720 0
DWIDTH 28 0
BBX 23 28 2 4
BITMAP
007FC0
01FFF0
07FFFC
0F807E
1E000C
1C0004
3C0000
380000
780000
700000
700000
700000
F00000
F007FE
F007FE
F007FE
70000E
70000E
70000E
78000E
78000E
3C000E
1C000E
1E000E
0F800E
07FFFE
01FFFE
007FE0
ENDCHAR
STARTCHAR 0048
ENCODING 72
SWIDTH 771 0
DWIDTH 30 0
BBX 23 28 3 4
BITMAP
F0000E
F0000E
F0000E
F0000E
F0000E
F0000E
F0000E
F0000E
F0000E
F0000E
F0000E
F0000E
FFFFFE
FFFFFE
FFFFFE
F0000E
F0000E
F0000E
F0000E
F0000E
F0000E
F0000E
F0000E
F0000E
F0000E
F0000E
F0000E
F0000E
ENDCHAR
STARTCHAR 0049
ENCODING 73
SWIDTH 257 0
DWIDTH 10 0
BBX 4 28 3 4
BITMAP
F0
F0
F0
F0
F0
F0
F0
F0
F0
F0
F0
F0
F0
F0
F0
F0
F0
F0
F0
F0
F0
F0
F0
F0
F0
F0
F0
F0
ENDCHAR
STARTCHAR 004A
ENCODING 74
SWIDTH 257 0
DWIDTH 10 0
BBX 9 35 0 -3
BITMAP
0380
0380
0380
0380
0380
0380
0380
0380
0380
0380
0380
0380
0380
0380
0380
0380
0380
0380
0380
0380
0380
0380
0380
0380
0380
0380
0380
0380
0380
0380
0380
0780
FF00
FF00
FC00
ENDCHAR
STARTCHAR 004B
ENCODING 75
SWIDTH 720 0
DWIDTH 28 0
BBX 22 28 3 4
BITMAP
F00078
F000F0
F001E0
F007C0
F00F80
F01E00
F03C00
F07800
F0F000
F1E000
F3C000
F78000
FF0000
FE0000
FF0000
FF8000
F3C000
F1E000
F0F000
F07800
F03C00
F01E00
F00F00
F00780
F003C0
F001E0
F000F0
F0007C
ENDCHAR
STARTCHAR 004C
ENCODING 76
SWIDTH 617 0
DWIDTH 24 0
BBX 18 28 3 4
BITMAP
F00000
F00000
F00000
F00000
F00000
F00000
F00000
F00000
F00000
F00000
F00000
F00000
F00000
F00000
F00000
F00000
F00000
F00000
F00000
F00000
F00000
F00000
F00000
F00000
F00000
FFFFC0
FFFFC0
FFFFC0
ENDCHAR
STARTCHAR 004D
ENCODING 77
SWIDTH 848 0
DWIDTH 33 0
BBX 27 28 3 4
BITMAP
E00000E0
F00001E0
F00001E0
F80003E0
F80003E0
F80003E0
FC0007E0
FC0007E0
EE000EE0
EE000EE0
E7001CE0
E7001CE0
E30018E0
E38038E0
E38030E0
E1C070E0
E1C070E0
E0E0E0E0
E0E0E0E0
E070C0E0
E071C0E0
E03180E0
E03B80E0
E03B80E0
E01F00E0
E01F00E0
E00E00E0
E00E00E0
ENDCHAR
STARTCHAR 004E
ENCODING 78
SWIDTH 745 0
DWIDTH 29 0
BBX 23 28 3 4
BITMAP
E0000E
F0000E
F8000E
F8000E
FC000E
FE000E
EF000E
E7000E
E3800E
E3C00E
E1E00E
E0E00E
E0700E
E0780E
E03C0E
E01C0E
E00E0E
E00F0E
E0078E
E0038E
E001CE
E001EE
E000FE
E0007E
E0003E
E0003E
E0001E
E0000E
ENDCHAR
STARTCHAR 004F
ENCODING 79
SWIDTH 771 0
DWIDTH 30 0
BBX 26 28 2 4
BITMAP
007F8000
01FFE000
07FFF800
0F807C00
1E001E00
3C000F00
3C000F00
38000780
78000780
70000380
70000380
70000380
F00003C0
F00003C0
F00003C0
F00003C0
70000380
70000380
70000380
78000780
78000780
3C000F00
1C000E00
1E001E00
0F807C00
07FFF800
01FFE000
007F8000
ENDCHAR
STARTCHAR 0050
ENCODING 80
SWIDTH 694 0
DWIDTH 27 0
BBX 21 28 3 4
BITMAP
FFFE00
FFFF80
FFFFE0
F001E0
F000F0
F00070
F00070
F00078
F00078
F00070
F00070
F000F0
F003E0
FFFFC0
FFFF80
FFFC00
F00000
F00000
F00000
F00000
F00000
F00000
F00000
F00000
F00000
F00000
F00000
F00000
ENDCHAR
STARTCHAR 0051
ENCODING 81
SWIDTH 771 0
DWIDTH 30 0
BBX 26 35 2 -3
BITMAP
007F8000
01FFE000
07FFF800
0F807C00
1E001E00
3C000F00
3C000F00
38000780
78000780
70000380
70000380
70000380
F00003C0
F00003C0
F00003C0
F00003C0
70000380
70000380
70000380
78000780
78000780
3C000F00
1C000F00
1E001E00
0F807C00
07FFF800
01FFE000
007FC000
0001C000
0001E000
0000F000
00007800
00003C00
00001C00
00000800
ENDCHAR
STARTCHAR 0052
ENCODING 82
SWIDTH 745 0
DWIDTH 29 0
BBX 22 28 3 4
BITMAP
FFFE00
FFFFC0
FFFFE0
F001F0
F000F0
F00070
F00078
F00078
F00078
F00078
F00070
F000F0
F003E0
FFFFC0
FFFF00
FFFF00
F003C0
F001C0
F001E0
F000E0
F000E0
F000F0
F00070
F00078
F00038
F00038
F0003C
F0001C
ENDCHAR
STARTCHAR 0053
ENCODING 83
SWIDTH 617 0
DWIDTH 24 0
BBX 20 28 2 4
BITMAP
01FE00
0FFF80
1FFFE0
3C03F0
780060
700020
F00000
F00000
F00000
F00000
780000
7C0000
3F8000
1FF800
03FF00
007FC0
0007E0
0000F0
000070
000070
000070
000070
000070
E000F0
F803E0
7FFFC0
1FFF80
07FC00
ENDCHAR
STARTCHAR 0054
ENCODING 84
SWIDTH 591 0
DWIDTH 23 0
BBX 23 28 0 4
BITMAP
FFFFFE
FFFFFE
FFFFFE
003800
003800
003800
003800
003800
003800
003800
003800
003800
003800
003800
003800
003800
003800
003800
003800
003800
003800
003800
003800
003800
003800
003800
003800
003800
ENDCHAR
STARTCHAR 0055
ENCODING 85
SWIDTH 720 0
DWIDTH 28 0
BBX 22 28 3 4
BITMAP
E0001C
E0001C
E0001C
E0001C
E0001C
E0001C
E0001C
E0001C
E0001C
E0001C
E0001C
E0001C
E0001C
E0001C
E0001C
E0001C
E0001C
E0001C
E0001C
F0001C
70001C
70003C
780038
3C0078
3E01F0
1FFFE0
07FFC0
01FE00
ENDCHAR
STARTCHAR 0056
ENCODING 86
SWIDTH 694 0
DWIDTH 27 0
BBX 27 28 0 4
BITMAP
F00000E0
700001C0
780001C0
380003C0
38000380
3C000780
1C000700
1E000700
0E000E00
0F000E00
07001E00
07001C00
07803C00
03803800
03C03800
01C07000
01C07000
00E0E000
00E0E000
00F1E000
0071C000
0079C000
003B8000
003B8000
001F0000
001F0000
001F0000
000E0000
ENDCHAR
STARTCHAR 0057
ENCODING 87
SWIDTH 1105 0
DWIDTH 43 0
BBX 41 28 1 4
BITMAP
F0001C000380
70001C000700
70001E000700
78003E000700
38003E000E00
38003F000E00
1C0077000E00
1C0077001C00
1C00E3801C00
0E00E3801C00
0E00E3803800
0E01C1C03800
0701C1C03800
0701C0C07000
070380E07000
038380E07000
03838060E000
03870070E000
01C70070E000
01C70031C000
01CE0039C000
00EE003B8000
00EE001F8000
00FC001F8000
007C001F0000
007C000F0000
0078000F0000
0038000E0000
ENDCHAR
STARTCHAR 0058
ENCODING 88
SWIDTH 642 0
DWIDTH 25 0
BBX 24 28 1 4
BITMAP
F0001E
78001E
38003C
3C0078
1E0070
0F00F0
0701E0
0783C0
03C380
01C780
00EF00
00FE00
007C00
003C00
007C00
00FE00
00EF00
01E700
03C780
0383C0
0781E0
0F00E0
1E00F0
1C0078
3C0038
78003C
F0001E
E0000F
ENDCHAR
STARTCHAR 0059
ENCODING 89
SWIDTH 642 0
DWIDTH 25 0
BBX 24 28 0 4
BITMAP
E0000F
F0000E
78001E
38003C
3C0038
1E0078
0E00F0
0F00E0
0701E0
0781C0
03C380
01C780
01E700
00FE00
007E00
007C00
003C00
003800
003800
003800
003800
003800
003800
003800
003800
003800
003800
003800
ENDCHAR
STARTCHAR 005A
ENCODING 90
SWIDTH 591 0
DWIDTH 23 0
BBX 20 28 2 4
BITMAP
FFFFE0
FFFFE0
FFFFE0
0001E0
0003C0
000380
000700
000F00
000E00
001C00
003C00
003800
007000
00F000
01E000
01C000
03C000
078000
070000
0F0000
1E0000
1C0000
380000
780000
700000
FFFFF0
FFFFF0
FFFFF0
ENDCHAR
STARTCHAR 0061
ENCODING 97
SWIDTH 565 0
DWIDTH 22 0
BBX 18 20 2 4
BITMAP
07E1C0
0FF9C0
1FFDC0
3C07C0
7803C0
7003C0
F001C0
E001C0
E001C0
E001C0
E001C0
E001C0
E001C0
F001C0
7003C0
7803C0
3C0FC0
3FFDC0
0FF9C0
03F1C0
ENDCHAR
STARTCHAR 0062
ENCODING 98
SWIDTH 642 0
DWIDTH 25 0
BBX 18 29 3 4
BITMAP
E00000
E00000
E00000
E00000
E00000
E00000
E00000
E00000
E00000
E1F800
E7FE00
EFFF00
FC0F80
F80380
F003C0
F001C0
E001C0
E001C0
E001C0
E001C0
E001C0
E001C0
F001C0
F003C0
F80380
FC0F80
EFFF00
E7FE00
E1F800
ENDCHAR
STARTCHAR 0063
ENCODING 99
SWIDTH 514 0
DWIDTH 20 0
BBX 16 20 2 4
BITMAP
03F8
0FFE
1FFF
3C07
7800
7000
F000
E000
E000
E000
E000
E000
E000
F000
7000
7800
3C07
1FFF
0FFE
03F8
ENDCHAR
STARTCHAR 0064
ENCODING 100
SWIDTH 565 0
DWIDTH 22 0
BBX 18 29 2 4
BITMAP
0001C0
0001C0
0001C0
0001C0
0001C0
0001C0
0001C0
0001C0
0001C0
07F1C0
0FF9C0
3FFDC0
3C0FC0
7803C0
7003C0
F001C0
E001C0
E001C0
E001C0
E001C0
E001C0
E001C0
F001C0
7003C0
7803C0
3C0FC0
1FFDC0
0FF9C0
03F1C0
ENDCHAR
STARTCHAR 0065
ENCODING 101
SWIDTH 540 0
DWIDTH 21 0
BBX 17 20 2 4
BITMAP
03F000
0FFC00
1FFE00
3C0700
780700
700380
F00380
E00380
FFFF80
FFFF80
E00000
E00000
E00000
F00000
700000
780100
3C0380
1FFF80
0FFF00
03F800
ENDCHAR
STARTCHAR 0066
ENCODING 102
SWIDTH 334 0
DWIDTH 13 0
BBX 13 29 0 4
BITMAP
01F8
03F8
07F8
0F00
0F00
0E00
0E00
0E00
0E00
FFF0
FFF0
FFF0
0E00
0E00
0E00
0E00
0E00
0E00
0E00
0E00
0E00
0E00
0E00
0E00
0E00
0E00
0E00
0E00
0E00
ENDCHAR
STARTCHAR 0067
ENCODING 103
SWIDTH 565 0
DWIDTH 22 0
BBX 18 28 2 -4
BITMAP
07F1C0
0FF9C0
3FFDC0
3C07C0
7003C0
7003C0
E001C0
E001C0
E001C0
E001C0
E001C0
E001C0
F001C0
7003C0
7803C0
3C07C0
3FFDC0
1FF9C0
03F1C0
0001C0
0001C0
0001C0
0001C0
0003C0
380780
3FFF80
1FFE00
07F800
ENDCHAR
STARTCHAR 0068
ENCODING 104
SWIDTH 591 0
DWIDTH 23 0
BBX 17 29 3 4
BITMAP
E00000
E00000
E00000
E00000
E00000
E00000
E00000
E00000
E00000
E1F800
E7FE00
EFFF00
FC0F00
F80700
F00780
F00380
E00380
E00380
E00380
E00380
E00380
E00380
E00380
E00380
E00380
E00380
E00380
E00380
E00380
ENDCHAR
STARTCHAR 0069
ENCODING 105
SWIDTH 231 0
DWIDTH 9 0
BBX 4 28 3 4
BITMAP
F0
F0
F0
F0
00
00
00
00
E0
E0
E0
E0
E0
E0
E0
E0
E0
E0
E0
E0
E0
E0
E0
E0
E0
E0
E0
E0
ENDCHAR
STARTCHAR 006A
ENCODING 106
SWIDTH 231 0
DWIDTH 9 0
BBX 9 36 -2 -4
BITMAP
0780
0780
0780
0780
0000
0000
0000
0000
0700
0700
0700
0700
0700
0700
0700
0700
0700
0700
0700
0700
0700
0700
0700
0700
0700
0700
0700
0700
0700
0700
0700
0700
0F00
FE00
FE00
F800
ENDCHAR
STARTCHAR 006B
ENCODING 107
SWIDTH 591 0
DWIDTH 23 0
BBX 17 29 3 4
BITMAP
E00000
E00000
E00000
E00000
E00000
E00000
E00000
E00000
E00000
E00F00
E01E00
E03C00
E07800
E0F000
E1E000
E3C000
E78000
EF0000
FE0000
FF0000
EF8000
E7C000
E3E000
E1F000
E07800
E03C00
E01E00
E00F00
E00780
ENDCHAR
STARTCHAR 006C
ENCODING 108
SWIDTH 231 0
DWIDTH 9 0
BBX 3 29 3 4
BITMAP
E0
E0
E0
E0
E0
E0
E0
E0
E0
E0
E0
E0
E0
E0
E0
E0
E0
E0
E0
E0
E0
E0
E0
E0
E0
E0
E0
E0
E0
ENDCHAR
STARTCHAR 006D
ENCODING 109
SWIDTH 874 0
DWIDTH 34 0
BBX 28 20 3 4
BITMAP
E3F01F80
E7FC7FC0
EFFEFFE0
F81FC0E0
F00F80F0
F00F0070
E00F0070
E0070070
E0070070
E0070070
E0070070
E0070070
E0070070
E0070070
E0070070
E0070070
E0070070
E0070070
E0070070
E0070070
ENDCHAR
STARTCHAR 006E
ENCODING 110
SWIDTH 591 0
DWIDTH 23 0
BBX 17 20 3 4
BITMAP
E1F800
E7FE00
EFFF00
FC0F00
F00700
F00780
E00380
E00380
E00380
E00380
E00380
E00380
E00380
E00380
E00380
E00380
E00380
E00380
E00380
E00380
ENDCHAR
STARTCHAR 006F
ENCODING 111
SWIDTH 565 0
DWIDTH 22 0
BBX 18 20 2 4
BITMAP
03F000
0FFC00
1FFE00
3C0F00
780780
7003C0
F001C0
E001C0
E001C0
E001C0
E001C0
E001C0
E001C0
F001C0
7003C0
780380
3C0F00
1FFF00
0FFC00
03F000
ENDCHAR
STARTCHAR 0070
ENCODING 112
SWIDTH 617 0
DWIDTH 24 0
BBX 18 28 3 -4
BITMAP
E1F800
E7FE00
EFFF00
FC0F80
F80780
F003C0
F001C0
E001C0
E001C0
E001C0
E001C0
E001C0
E001C0
F001C0
F003C0
F80380
FC0F80
EFFF00
E7FE00
E1F800
E00000
E00000
E00000
E00000
E00000
E00000
E00000
E00000
ENDCHAR
STARTCHAR 0071
ENCODING 113
SWIDTH 565 0
DWIDTH 22 0
BBX 19 28 2 -4
BITMAP
07E0E0
0FF9C0
1FFDC0
3C07C0
7803C0
7003C0
F001C0
E001C0
E001C0
E001C0
E001C0
E001C0
E001C0
F001C0
7003C0
7807C0
3C0FC0
3FFDC0
0FF9C0
03F1C0
0001C0
0001C0
0001C0
0001C0
0001C0
0001C0
0001C0
0001C0
ENDCHAR
STARTCHAR 0072
ENCODING 114
SWIDTH 437 0
DWIDTH 17 0
BBX 11 20 3 4
BITMAP
E3E0
E7E0
EFE0
FC00
F000
F000
E000
E000
E000
E000
E000
E000
E000
E000
E000
E000
E000
E000
E000
E000
ENDCHAR
STARTCHAR 0073
ENCODING 115
SWIDTH 488 0
DWIDTH 19 0
BBX 15 20 2 4
BITMAP
07E0
1FFC
3FFE
780E
7004
F000
7000
7800
7E00
3FE0
0FF8
00FC
001E
000E
000E
000E
E01E
FFFC
7FF8
0FE0
ENDCHAR
STARTCHAR 0074
ENCODING 116
SWIDTH 334 0
DWIDTH 13 0
BBX 13 26 0 4
BITMAP
0200
0E00
0E00
0E00
0E00
0E00
FFF8
FFF8
FFF8
0E00
0E00
0E00
0E00
0E00
0E00
0E00
0E00
0E00
0E00
0E00
0E00
0F00
0700
07F8
03F8
01F8
ENDCHAR
STARTCHAR 0075
ENCODING 117
SWIDTH 565 0
DWIDTH 22 0
BBX 16 20 3 4
BITMAP
E007
E007
E007
E007
E007
E007
E007
E007
E007
E007
E007
E007
E007
E007
E00F
F00F
781F
7FFF
3FF7
0FC7
ENDCHAR
STARTCHAR 0076
ENCODING 118
SWIDTH 540 0
DWIDTH 21 0
BBX 19 20 1 4
BITMAP
E000E0
E001E0
F001C0
7001C0
780380
380380
380700
1C0700
1C0700
1E0E00
0E0E00
0E1C00
071C00
071C00
07B800
03B800
03F000
01F000
01E000
00E000
ENDCHAR
STARTCHAR 0077
ENCODING 119
SWIDTH 874 0
DWIDTH 34 0
BBX 32 20 1 4
BITMAP
F003C00F
7003C00E
7003C00E
7807E01C
3807E01C
3806E01C
3C0E7038
1C0E7038
1C0C7038
1E1C3870
0E1C3870
0E383870
07381CE0
07381CE0
07701CE0
03F00FC0
03F00FC0
03E00780
01E00780
01C00780
ENDCHAR
STARTCHAR 0078
ENCODING 120
SWIDTH 540 0
DWIDTH 21 0
BBX 19 20 1 4
BITMAP
F001E0
7803C0
3C0780
1C0F00
1E0E00
0F1E00
07BC00
03F800
01F000
01E000
01F000
03F800
07B800
073C00
0F1E00
1E0F00
3C0780
780380
7003C0
F001E0
ENDCHAR
STARTCHAR 0079
ENCODING 121
SWIDTH 540 0
DWIDTH 21 0
BBX 19 28 1 -4
BITMAP
E000E0
E001E0
7001C0
7001C0
780380
380380
380700
1C0700
1C0700
1E0E00
0E0E00
0F1C00
071C00
071800
03B800
03B800
03F000
01F000
01E000
00E000
01C000
01C000
03C000
078000
0F0000
3E0000
7C0000
700000
ENDCHAR
STARTCHAR 007A
ENCODING 122
SWIDTH 514 0
DWIDTH 20 0
BBX 16 20 2 4
BITMAP
FFFF
FFFF
FFFF
001E
001C
003C
0078
00F0
01E0
01C0
03C0
0780
0F00
1E00
1C00
3800
7800
FFFF
FFFF
FFFF
ENDCHAR
STARTCHAR F004
ENCODING 61444
SWIDTH 1131 0
DWIDTH 44 0
BBX 40 35 2 -3
BITMAP
01FE007F80
07FF81FFE0
1FFFE7FFF0
3FCFFFF3F8
3E01FF807C
7800FE003E
78003C001E
F00018000E
F00000000F
F00000000F
E00000000F
E00000000F
F00000000F
F00000000F
F00000001E
780000001E
780000003E
3C0000003C
3E0000007C
1F000000F8
0F800001F0
07C00003E0
03E00007C0
01F0000F80
00F8001F00
007C003E00
003E007C00
001F00F800
000F81F000
0007C3E000
0003E7C000
0001FF8000
0000FF0000
00007E0000
00003C0000
ENDCHAR
STARTCHAR F005
ENCODING 61445
SWIDTH 1131 0
DWIDTH 44 0
BBX 40 39 2 -5
BITMAP
0000380000
00003C0000
00007E0000
00007E0000
0000FF0000
0000FF0000
0001E78000
0001E78000
0003C3C000
0003C3C000
000783E000
000F81F000
07FF01FFE0
FFFF00FFFE
FFFE00FFFF
FFC00003FF
F80000001F
7C0000003E
3E0000007C
1F000000F8
0F800001F0
07C00003E0
03E00007C0
01F0000F80
00F0000F00
00F0000F00
00F0000F00
00F0000F00
00E0000F00
00E0100700
01E07C0700
01E0FF0780
01E3FFC780
01EFFFF780
01FFC3FF80
01FF00FF80
03FC003F80
01F0000F80
01C0000300
ENDCHAR
STARTCHAR F007
ENCODING 61447
SWIDTH 1002 0
DWIDTH 39 0
BBX 39 39 0 -5
BITMAP
0000FE0000
0007FFC000
001FFFE000
003FFFF800
007E01FC00
00FC007C00
00F8003E00
01F0001F00
01E0000F00
03C0000700
03C0000780
03C0000780
0380000780
0380000780
0380000780
03C0000780
03C0000780
03C0000780
01E0000F00
01E0000F00
00F0001E00
00F8003E00
03FE00FF80
0FFFC7FFE0
1FFFFFFFF0
3F07FFC1F8
7C01FF007C
780000003C
F00000001E
F00000001E
F00000001E
F00000001E
F00000001E
F00000001E
F00000001E
7FFFFFFFFC
7FFFFFFFFC
3FFFFFFFF8
0FFFFFFFE0
ENDCHAR
STARTCHAR F017
ENCODING 61463
SWIDTH 1002 0
DWIDTH 39 0
BBX 37 37 1 -4
BITMAP
0007FF0000
003FFFE000
00FFFFF000
01FE07FC00
03F000FE00
07C0003F00
0F80000F80
1F00F007C0
3E00F803C0
3C00F801E0
7800F801F0
7800F800F0
7000F800F0
F000F80078
F000F80078
E000F80078
E000F80078
E000F80038
E000F80038
E000FC0038
E000FE0078
F0007F8078
F0001FC078
F0000FC078
78000780F0
78000100F0
7C000001E0
3C000001E0
3E000003C0
1F000007C0
0F80000F80
07E0003F00
03F800FE00
01FF8FFC00
007FFFF000
003FFFC000
0007FF0000
ENDCHAR
STARTCHAR F022
ENCODING 61474
SWIDTH 1002 0
DWIDTH 39 0
BBX 39 34 0 -2
BITMAP
1FFFFFFFF0
7FFFFFFFFC
FFFFFFFFFE
FFFFFFFFFE
F00000001E
F00000001E
F00000001E
F06000001E
F1F1FFFE1E
F1F1FFFF1E
F1F1FFFF1E
F1F1FFFE1E
F0E000001E
F00000001E
F00000001E
F0F000001E
F1F1FFFF1E
F1F1FFFF1E
F1F1FFFF1E
F0F000001E
F00000001E
F00000001E
F0E000001E
F1F1FFFF1E
F1F1FFFF1E
F1F1FFFF1E
F0F1FFFE1E
F00000001E
F00000001E
F00000001E
F00000001E
FFFFFFFFFE
FFFFFFFFFE
7FFFFFFFFC
ENDCHAR
STARTCHAR F024
ENCODING 61476
SWIDTH 1002 0
DWIDTH 39 0
BBX 39 39 0 -5
BITMAP
3C00000000
7E00000000
FE00000000
FE00000000
FEFFE000FC
FFFFFC07FC
7FFFFFFFFE
3FE0FFFFFE
3F001FFF1E
3C0001F01E
380000001E
380000001E
380000001E
380000001E
380000001E
380000001E
380000001E
380000001E
380000001E
380000001E
380000001E
380000001E
380000001E
380000001E
380000001E
380000001E
38FFF8007E
3FFFFF01FC
3FFFFFFFF8
3FE03FFFF0
3F0007FFC0
3800003800
3800000000
3800000000
3800000000
3800000000
3800000000
3800000000
3800000000
ENDCHAR
STARTCHAR F02E
ENCODING 61486
SWIDTH 745 0
DWIDTH 29 0
BBX 29 39 0 -5
BITMAP
3FFFFFE0
7FFFFFF8
FFFFFFF8
FFFFFFF8
F0000038
F0000038
F0000038
F0000038
F0000038
F0000038
F0000038
F0000038
F0000038
F0000038
F0000038
F0000038
F0000038
F0000038
F0000038
F0000038
F0000038
F0000038
F0000038
F0000038
F0000038
F0000038
F0020038
F00F8038
F03FE038
F07FF038
F1FDFC38
F7F87F38
FFE03FF8
FF800FF8
FF0003F8
FC0001F8
F0000078
C0000018
80000008
ENDCHAR
STARTCHAR F03E
ENCODING 61502
SWIDTH 1002 0
DWIDTH 39 0
BBX 39 29 0 0
BITMAP
3FFFFFFFF8
7FFFFFFFFC
FFFFFFFFFE
F00000001E
F00000001E
F00000001E
F00000001E
F1F000001E
F1F800001E
F1F801801E
F1F803C01E
F1F007E01E
F0400FF01E
F0001FF81E
F0003FFC1E
F0307FFE1E
F078FFFF1E
F0FDFFFF1E
F1FFFFFF1E
F1FFFFFF1E
F1FFFFFF1E
F1FFFFFF1E
F00000001E
F00000001E
F00000001E
FFFFFFFFFE
FFFFFFFFFE
7FFFFFFFFC
3FFFFFFFF8
ENDCHAR
STARTCHAR F044
ENCODING 61508
SWIDTH 1131 0
DWIDTH 44 0
BBX 44 39 0 -5
BITMAP
000000003C00
000000007E00
00000000FF00
00000001FF80
00000003E7C0
7FFFFF87C3E0
7FFFFF0F81F0
FFFFFE1FC0F0
F000003FE0F0
F000007DF1E0
F00000F8FBE0
F00001F07FC0
F00003E03F80
F00007C01F00
F0000F803E00
F0001F007C00
F0003E00F800
F0007C01F000
F000F803E000
F001F007C000
F003E00F8000
F007C01F0000
F007803E0000
F007007C0000
F00700F8C000
F00F01F1C000
F00F03E3C000
F00F1FC3C000
F00FFF83C000
F00FFF03C000
F007FE03C000
F0010003C000
F0000003C000
F0000003C000
F0000003C000
FFFFFFFFC000
FFFFFFFFC000
7FFFFFFF8000
3FFFFFFF0000
ENDCHAR
STARTCHAR F057
ENCODING 61527
SWIDTH 1002 0
DWIDTH 39 0
BBX 37 37 1 -4
BITMAP
0007FF0000
003FFFE000
00FFFFF000
01FE07FC00
03F000FE00
07C0003F00
0F80000F80
1F000007C0
3E000003C0
3C000001E0
78000101F0
780E0380F0
701F07C0F0
F01F8FC078
F01FDF8078
E00FFF0078
E007FE0078
E003FC0038
E001FC0038
E003FE0038
E007FF0078
F00FFF8078
F01F9FC078
F03F0FC078
781E07C0F0
780C0380F0
7C000001E0
3C000001E0
3E000003C0
1F000007C0
0F80000F80
07E0003F00
03F800FE00
01FF8FFC00
007FFFF000
003FFFC000
0007FF0000
ENDCHAR
STARTCHAR F058
ENCODING 61528
SWIDTH 1002 0
DWIDTH 39 0
BBX 37 37 1 -4
BITMAP
0007FF0000
003FFFE000
00FFFFF000
01FE07FC00
03F000FE00
07C0003F00
0F80000F80
1F000007C0
3E000003C0
3C000001E0
78000001F0
78000020F0
70000070F0
F00000F878
F00001F878
E00003F078
E00007E078
E0600FC038
E0F01F8038
E0F83F0038
E0FC7E0078
F07EFC0078
F03FF80078
F01FF00078
780FE000F0
7807C000F0
7C038001E0
3C010001E0
3E000003C0
1F000007C0
0F80000F80
07E0003F00
03F800FE00
01FF8FFC00
007FFFF000
003FFFC000
0007FF0000
ENDCHAR
STARTCHAR F059
ENCODING 61529
SWIDTH 1002 0
DWIDTH 39 0
BBX 37 37 1 -4
BITMAP
0007FF0000
003FFFE000
00FFFFF000
01FE07FC00
03F000FE00
07C0003F00
0F80000F80
1F002007C0
3E03FE03C0
3C07FF01E0
780FFF81F0
781FFFC0F0
701F8FC0F0
F00E07E078
F00207E078
E00007C078
E0001FC078
E0003FC038
E0007F8038
E000FE0038
E000FC0078
F000F80078
F000F80078
F000000078
7800F000F0
7800F800F0
7C01FC01E0
3C01FC01E0
3E00F803C0
1F007007C0
0F80000F80
07E0003F00
03F800FE00
01FF8FFC00
007FFFF000
003FFFC000
0007FF0000
ENDCHAR
STARTCHAR F070
ENCODING 61552
SWIDTH 1131 0
DWIDTH 44 0
BBX 44 39 0 -5
BITMAP
006000000000
00F000000000
00F000000000
00F800000000
007C00000000
003C0F000000
001FFFF80000
001FFFFF0000
000FFFFFC000
0007FE3FE000
0187FE03F800
03C3FE00FC00
0FC1FC007E00
0F81FE011F00
1F00FE030F80
3E087F0707C0
7C183FFF03E0
781C3FFF01E0
F00E1FFF00F0
F00E0FFF00F0
F00F0FFF01F0
780787FE01E0
7C0783FE03C0
3E03C3FC07C0
1F01E1F80F80
0F80F0F01F00
07E030787E00
03F0007DFC00
01FE003FF800
00FFE01FE000
003FFE1FC000
000FFF0F8000
0001FF078000
00000007C000
00000003E000
00000001E000
00000000F000
00000000F000
000000004000
ENDCHAR
STARTCHAR F073
ENCODING 61555
SWIDTH 874 0
DWIDTH 34 0
BBX 34 39 0 -5
BITMAP
01F003E000
01F003E000
01F003E000
01F003E000
01F003E000
7FFFFFFF80
7FFFFFFF80
FFFFFFFFC0
FFFFFFFFC0
FFFFFFFFC0
FFFFFFFFC0
FFFFFFFFC0
F0000003C0
F0000003C0
F0000003C0
F0000003C0
F0000003C0
F1F1E3E3C0
F1F1E3E3C0
F1F1E3E3C0
F1F1E3E3C0
F1F1E3E3C0
F0000003C0
F0000003C0
F0F1E3C3C0
F1F1E3E3C0
F1F1E3E3C0
F1F1E3E3C0
F1F1E3E3C0
F0000003C0
F0000003C0
F0000003C0
F0000003C0
F0000003C0
F0000003C0
FFFFFFFFC0
FFFFFFFFC0
7FFFFFFF80
3FFFFFFF00
ENDCHAR
STARTCHAR F075
ENCODING 61557
SWIDTH 1131 0
DWIDTH 44 0
BBX 44 34 0 -2
BITMAP
00001F800000
0003FFFC0000
001FFFFF8000
007FFFFFE000
01FF801FF800
03F80003FC00
07E000007E00
0F8000003F00
1F0000000F80
3E00000007C0
7C00000003C0
7800000001E0
7800000001E0
F000000000E0
F000000000F0
F000000000F0
F000000000F0
F000000000F0
F000000000F0
F000000001E0
7800000001E0
7800000003C0
3C00000007C0
3E0000000F80
1F8000001F00
0F8000003F00
07000000FE00
0F020007F800
1E0FFFFFF000
3C3FFFFFC000
78FFFFFE0000
FFFCFFE00000
FFF000000000
7F8000000000
ENDCHAR
STARTCHAR F07B
ENCODING 61563
SWIDTH 1002 0
DWIDTH 39 0
BBX 39 29 0 0
BITMAP
3FFF000000
7FFF800000
FFFFC00000
F003E00000
F001F00000
F000FFFFFC
F0007FFFFC
F0003FFFFE
F00000001E
F00000001E
F00000001E
F00000001E
F00000001E
F00000001E
F00000001E
F00000001E
F00000001E
F00000001E
F00000001E
F00000001E
F00000001E
F00000001E
F00000001E
F00000001E
F00000001E
FFFFFFFFFE
FFFFFFFFFE
7FFFFFFFFC
3FFFFFFFF8
ENDCHAR
STARTCHAR F07C
ENCODING 61564
SWIDTH 1131 0
DWIDTH 44 0
BBX 44 29 0 0
BITMAP
3FFF00000000
7FFF80000000
FFFFC0000000
F003E0000000
F001F0000000
F000FFFFE000
F0007FFFF000
F0003FFFF000
F00000007000
F00000007000
F00000007000
F00000007000
F03FFFFFFFC0
F07FFFFFFFE0
F0FFFFFFFFF0
F1FFFFFFFFF0
F1E0000000F0
F3C0000001E0
F3C0000003E0
F780000003C0
FF0000000780
FF0000000F80
FE0000000F00
FE0000001F00
FC0000001E00
FFFFFFFFFC00
FFFFFFFFFC00
7FFFFFFFF800
3FFFFFFFF000
ENDCHAR
STARTCHAR F080
ENCODING 61568
SWIDTH 1002 0
DWIDTH 39 0
BBX 39 29 0 0
BITMAP
F000000000
F000000000
F000000780
F000000780
F000000780
F001C00780
F001C00780
F001C00780
F001C00780
F001C00780
F001C3C780
F001C3C780
F001C3C780
F001C3C780
F0C1C3C780
F1E1C3C780
F1E1C3C780
F1E1C3C780
F1E1C3C780
F1E1C3C780
F1E1C3C780
F0E1C38780
F000000000
F000000000
F000000000
FFFFFFFFFC
FFFFFFFFFE
FFFFFFFFFE
FFFFFFFFFE
ENDCHAR
STARTCHAR F086
ENCODING 61574
SWIDTH 1131 0
DWIDTH 44 0
BBX 44 34 0 -2
BITMAP
0000F0000000
001FFF800000
00FFFFF00000
01FFFFFC0000
07FC03FE0000
0FE0003F0000
1F80000F8000
3E000007C000
3C000003E000
78000001E000
78000000F000
F0000000F000
F00000007000
F00000007080
F000000070C0
F000000070E0
F0000000F0E0
78000000F0E0
78000001E0F0
3C000003E0F0
3E000007C0F0
1F00000F80F0
3E00003F00E0
7E1C01FE01E0
FC7FFFFC03E0
F1FFFFF003C0
FFFFFFC007C0
FFF0F80007C0
7FC0000087E0
1800000FE3E0
0000007FFCF0
000007FFFFF0
0000007E7FE0
000000001FE0
ENDCHAR
STARTCHAR F089
ENCODING 61577
SWIDTH 1131 0
DWIDTH 44 0
BBX 20 39 2 -5
BITMAP
000030
000030
000070
000070
0000F0
0000F0
0001E0
0001E0
0003C0
0003C0
000780
000F80
07FF00
FFFF00
FFFE00
FFC000
F80000
7C0000
3E0000
1F0000
0F8000
07C000
03E000
01F000
00F000
00F000
00F000
00F000
00E000
00E010
01E070
01E0F0
01E3F0
01EFF0
01FFC0
03FF00
03FC00
01F000
00C000
ENDCHAR
STARTCHAR F094
ENCODING 61588
SWIDTH 1002 0
DWIDTH 39 0
BBX 39 39 0 -5
BITMAP
00000003C0
0001FFFFF0
0007FFFFF8
001FFFFFFC
003FC0783C
00FE00001E
01F800001E
03F03C001E
07C0FC001E
0781FC003C
0F07E0003C
1F0F80003C
1E1F00003C
3C3E00003C
3C3C00003C
787800003C
78F000001C
78E000001C
79E000001C
71C000003C
71C000003C
71C000003C
700000003C
7000000078
7000000078
78000000F8
78000000F0
78000001F0
78000003E0
70000007C0
F000000F80
F000001F00
F000007E00
F00001FC00
787F1FF800
7FFFFFE000
3FFFFFC000
1FFFFE0000
0780000000
ENDCHAR
STARTCHAR F09D
ENCODING 61597
SWIDTH 1131 0
DWIDTH 44 0
BBX 44 34 0 -2
BITMAP
1FFFFFFFFF80
7FFFFFFFFFE0
FFFFFFFFFFE0
FFFFFFFFFFF0
F000000000F0
F000000000F0
F000000000F0
F000000000F0
FFFFFFFFFFF0
FFFFFFFFFFF0
FFFFFFFFFFF0
FFFFFFFFFFF0
FFFFFFFFFFF0
FFFFFFFFFFF0
FFFFFFFFFFF0
FFFFFFFFFFF0
FFFFFFFFFFF0
F000000000F0
F000000000F0
F000000000F0
F000000000F0
F000000000F0
F0FC7FF800F0
F1FE7FF800F0
F1FE7FF800F0
F1FE7FF800F0
F1FE7FF800F0
F000000000F0
F000000000F0
F000000000F0
F000000000F0
FFFFFFFFFFF0
FFFFFFFFFFE0
7FFFFFFFFFE0
ENDCHAR
STARTCHAR F0A0
ENCODING 61600
SWIDTH 1131 0
DWIDTH 44 0
BBX 44 29 0 0
BITMAP
007FFFFFC000
007FFFFFE000
00FFFFFFF000
01F00000F800
01E000007800
03C000003C00
07C000003E00
0F8000001E00
0F0000000F00
1E0000000F80
3E0000000780
3C00000003C0
7FFFFFFFFFE0
FFFFFFFFFFE0
FFFFFFFFFFF0
FFFFFFFFFFF0
F000000000F0
F000000000F0
F000001838F0
F000003C78F0
F000003C7CF0
F000003C78F0
F000001838F0
F000000000F0
F000000000F0
FFFFFFFFFFF0
FFFFFFFFFFF0
7FFFFFFFFFE0
3FFFFFFFFFC0
ENDCHAR
STARTCHAR F0A4
ENCODING 61604
SWIDTH 1002 0
DWIDTH 39 0
BBX 39 34 0 -2
BITMAP
0000380000
0000FE0000
0000FF8000
0001FF8000
0003E7C000
0003C3C000
000781C000
000783C000
000F03FFC0
001F03FFF0
7FBE07FFF8
FFFC07FFFC
FFF800003C
FFF000001E
FFC000001E
FFC000001E
FFC000001E
FFC0003FFC
FFC0003FFC
FFC0003FF8
FFC0003FE0
FFC0003C00
FFC0007800
FFC0003800
FFC0007800
F3C0007800
E1C000F800
E1C000F000
F3F000F000
FFFC00F000
FFFF83E000
7FBFFFE000
000FFFC000
0003FF8000
ENDCHAR
STARTCHAR F0A5
ENCODING 61605
SWIDTH 1002 0
DWIDTH 39 0
BBX 39 34 0 -2
BITMAP
0000380000
0001FC0000
0003FE0000
0007FF0000
0007CF0000
0007878000
000707C000
000703C000
03FF83E000
1FFF81F000
3FFFC0FBFC
7FFFC07FFE
F800003FFE
F000001FFE
F0000007FE
F0000007FE
F0000007FE
7FF80007FE
7FF80007FE
3FF00007FE
0FF80007FE
00780007FE
00780007FE
00380007FE
00380007FE
003C00079E
003E00070E
001C00070E
001E003F9E
001E00FFFE
001F83FFFE
000FFFFBFC
0007FFE000
0003FF0000
ENDCHAR
STARTCHAR F0A6
ENCODING 61606
SWIDTH 874 0
DWIDTH 34 0
BBX 34 39 0 -5
BITMAP
000F800000
003FC00000
007FE00000
007FF00000
00F0F00000
00F0780000
00F0780000
00F0780000
00F0780000
00F07C0000
00F07FE000
00F07FFC00
00F07FFF00
1FF000FF80
3FF0003F80
7FF00007C0
78F00003C0
F0300003C0
F0000003C0
F0000003C0
F0000003C0
FC000003C0
7F000003C0
3FC0000380
0FE0000780
03F0000780
01F8000F00
0078000F00
003C001E00
003FFFFE00
003FFFFE00
003FFFFF00
003FFFCF00
003FFF8F00
003FFF8F00
003FFFCF00
003FFFFF00
003FFFFE00
001FFFFE00
ENDCHAR
STARTCHAR F0A7
ENCODING 61607
SWIDTH 874 0
DWIDTH 34 0
BBX 34 39 0 -5
BITMAP
001FFFFE00
003FFFFE00
003FFFFF00
003FFF8F00
003FFF8F00
003FFF8F00
003FFFDF00
003FFFFF00
003FFFFE00
003FFFFE00
007C001E00
00F8000F00
01F8000F00
03F0000780
0FE0000780
3F800003C0
7F000003C0
FC000003C0
F0000003C0
F0000003C0
F0000003C0
F0700003C0
7DF00003C0
7FF00007C0
3FF0003F80
1FF004FF00
00F07FFE00
00F07FFC00
00F07FC000
00F07C0000
00F0780000
00F0780000
00F0780000
00F0780000
00F8F00000
007FF00000
007FE00000
003FC00000
000F000000
ENDCHAR
STARTCHAR F0C5
ENCODING 61637
SWIDTH 874 0
DWIDTH 34 0
BBX 34 39 0 -5
BITMAP
001FFFF000
003FFFF800
003FFFFC00
003FFFFE00
003803DF00
003803CF80
003803C7C0
3FF803C3C0
7FF803FFC0
FFF803FFC0
FFF803FFC0
F03803FFC0
F0380003C0
F0380003C0
F0380003C0
F0380003C0
F0380003C0
F0380003C0
F0380003C0
F0380003C0
F0380003C0
F0380003C0
F0380003C0
F0380003C0
F0380003C0
F0380003C0
F0380003C0
F0380003C0
F03FFFFFC0
F03FFFFFC0
F01FFFFF80
F007FFFE00
F000070000
F000070000
F000070000
FFFFFF0000
FFFFFF0000
7FFFFE0000
3FFFFC0000
ENDCHAR
STARTCHAR F0C7
ENCODING 61639
SWIDTH 874 0
DWIDTH 34 0
BBX 34 34 0 -2
BITMAP
1FFFFF8000
7FFFFFE000
FFFFFFF000
FFFFFFF800
F1E007FC00
F1E0077E00
F1E0073F00
F1E0071F80
F1E0070F80
F1E00707C0
F1FFFF03C0
F1FFFF03C0
F1FFFF03C0
F0FFFE03C0
F0000003C0
F0000003C0
F003F003C0
F00FFC03C0
F01FFC03C0
F01F3E03C0
F01E1E03C0
F03C0F03C0
F03C0F03C0
F03C0F03C0
F01E1E03C0
F01FFE03C0
F00FFC03C0
F007F803C0
F003E003C0
F0000003C0
F0000003C0
FFFFFFFFC0
FFFFFFFFC0
7FFFFFFF80
ENDCHAR
STARTCHAR F0C8
ENCODING 61640
SWIDTH 874 0
DWIDTH 34 0
BBX 34 34 0 -2
BITMAP
1FFFFFFE00
7FFFFFFF80
FFFFFFFFC0
FFFFFFFFC0
F0000003C0
F0000003C0
F0000003C0
F0000003C0
F0000003C0
F0000003C0
F0000003C0
F0000003C0
F0000003C0
F0000003C0
F0000003C0
F0000003C0
F0000003C0
F0000003C0
F0000003C0
F0000003C0
F0000003C0
F0000003C0
F0000003C0
F0000003C0
F0000003C0
F0000003C0
F0000003C0
F0000003C0
F0000003C0
F0000003C0
F0000003C0
FFFFFFFFC0
FFFFFFFFC0
7FFFFFFF80
ENDCHAR
STARTCHAR F0E0
ENCODING 61664
SWIDTH 1002 0
DWIDTH 39 0
BBX 39 29 0 0
BITMAP
3FFFFFFFF8
7FFFFFFFFC
FFFFFFFFFE
F00000001E
F00000001E
F00000001E
F00000001E
F80000003E
FC0000007E
FE000000FE
FF800003FE
FFC00007FE
F7E0000FDE
F3F0003F1E
F0FC007E1E
F07E00FC1E
F03F01F81E
F01FC7E01E
F007FFC01E
F003FF801E
F001FE001E
F00038001E
F00000001E
F00000001E
F00000001E
FFFFFFFFFE
FFFFFFFFFE
7FFFFFFFFC
3FFFFFFFF8
ENDCHAR
STARTCHAR F0EB
ENCODING 61675
SWIDTH 745 0
DWIDTH 29 0
BBX 27 39 1 -5
BITMAP
003F8000
01FFF000
03FFF800
0FFFFE00
0F803F00
1F001F00
3E1E0F80
3C7E07C0
78FC03C0
79E003C0
F1C001E0
F38001E0
F38001E0
F38001E0
F10001E0
F00001E0
F00001E0
780003C0
780003C0
3C000780
3E000F80
1F001F00
0F001E00
07803C00
07C03C00
03FFF800
03FFF800
01FFF000
01FFF000
00000000
00000000
00000000
01FFF000
01FFF000
01FFF000
00FFE000
007FC000
007FC000
007FC000
ENDCHAR
STARTCHAR F0F3
ENCODING 61683
SWIDTH 874 0
DWIDTH 34 0
BBX 34 39 0 -5
BITMAP
0000C00000
0001E00000
0001E00000
0001E00000
000FFC0000
003FFF0000
007FFF8000
00FE1FC000
01F003E000
03E001F000
03C000F000
0780007800
0780007800
0700003800
0F00003C00
0F00003C00
0F00003C00
0F00003C00
0F00003C00
0F00003C00
0F00003C00
0F00003C00
0E00001C00
1E00001E00
3E00001F00
7C00000F80
7800000780
F0000007C0
F0000003C0
F0000003C0
FFFFFFFFC0
7FFFFFFF80
7FFFFFFF80
1FFFFFFE00
000E1C0000
000F3C0000
0007F80000
0003F00000
0001E00000
ENDCHAR
STARTCHAR F0F8
ENCODING 61688
SWIDTH 874 0
DWIDTH 34 0
BBX 34 39 0 -5
BITMAP
001FFE0000
001FFE0000
001F3E0000
001F3E0000
001F3E0000
1FF807FE00
3FF807FF00
3FFF3FFF00
3C1F3E0F00
3C1F3E0F00
3C1FFE0F00
3C1FFE0F00
3C00000F00
3C00000F00
3C00000F00
3C3E1F0F00
3C3E1F0F00
3C3E1F0F00
3C3E1F0F00
3C00000F00
3C00000F00
3C00000F00
3C3E1F0F00
3C3E1F0F00
3C3E1F0F00
3C3E1F0F00
3C3C0F0F00
3C00000F00
3C00000F00
3C01E00F00
3C01E00F00
3C01E00F00
3C01E00F00
3C01E00F00
3C01E00F00
FFFFFFFFC0
FFFFFFFFC0
FFFFFFFFC0
FFFFFFFFC0
ENDCHAR
STARTCHAR F0FE
ENCODING 61694
SWIDTH 874 0
DWIDTH 34 0
BBX 34 34 0 -2
BITMAP
1FFFFFFE00
7FFFFFFF80
FFFFFFFFC0
FFFFFFFFC0
F0000003C0
F0000003C0
F0000003C0
F0000003C0
F001E003C0
F001E003C0
F001E003C0
F001E003C0
F001E003C0
F001E003C0
F001E003C0
F0FFFFC3C0
F1FFFFE3C0
F1FFFFE3C0
F1FFFFE3C0
F0FFFFC3C0
F001E003C0
F001E003C0
F001E003C0
F001E003C0
F001E003C0
F001E003C0
F001E003C0
F0000003C0
F0000003C0
F0000003C0
F0000003C0
FFFFFFFFC0
FFFFFFFFC0
7FFFFFFF80
ENDCHAR
STARTCHAR F111
ENCODING 61713
SWIDTH 1002 0
DWIDTH 39 0
BBX 37 37 1 -4
BITMAP
0007FF0000
003FFFE000
00FFFFF000
01FE07FC00
03F000FE00
07C0003F00
0F80000F80
1F000007C0
3E000003C0
3C000001E0
78000001F0
78000000F0
70000000F0
F000000078
F000000078
E000000078
E000000078
E000000038
E000000038
E000000038
E000000078
F000000078
F000000078
F000000078
78000000F0
78000000F0
7C000001E0
3C000001E0
3E000003C0
1F000007C0
0F80000F80
07E0003F00
03F800FE00
01FF8FFC00
007FFFF000
003FFFC000
0007FF0000
ENDCHAR
STARTCHAR F118
ENCODING 61720
SWIDTH 1002 0
DWIDTH 39 0
BBX 37 37 1 -4
BITMAP
0007FF0000
003FFFE000
00FFFFF000
01FE07FC00
03F000FE00
07C0003F00
0F80000F80
1F000007C0
3E000003C0
3C000001E0
780F0381F0
780781E0F0
700791E0F0
F047D3E078
F07FDFF078
E07FDFE078
E03F8FE078
E01F07C038
E000000038
E000000038
E000000078
F060003078
F0F0007878
F0F800F878
787E03F0F0
783FFFE0F0
7C1FFFC1E0
3C07FF01E0
3E01FC03C0
1F000007C0
0F80000F80
07E0003F00
03F800FE00
01FF8FFC00
007FFFF000
003FFFC000
0007FF0000
ENDCHAR
STARTCHAR F119
ENCODING 61721
SWIDTH 1002 0
DWIDTH 39 0
BBX 37 37 1 -4
BITMAP
0007FF0000
003FFFE000
00FFFFF000
01FE07FC00
03F000FE00
07C0003F00
0F80000F80
1F000007C0
3E000003C0
3C000001E0
780F0381F0
780781E0F0
700791E0F0
F047D3E078
F07FDFF078
E07FDFE078
E03F8FE078
E01F07C038
E000000038
E000000038
E000000078
F001FC0078
F007FF0078
F00FFF8078
781FFFC0F0
783E03E0F0
7C3C01E1E0
3C3800E1E0
3E000003C0
1F000007C0
0F80000F80
07E0003F00
03F800FE00
01FF8FFC00
007FFFF000
003FFFC000
0007FF0000
ENDCHAR
STARTCHAR F11A
ENCODING 61722
SWIDTH 1002 0
DWIDTH 39 0
BBX 37 37 1 -4
BITMAP
0007FF0000
003FFFE000
00FFFFF000
01FE07FC00
03F000FE00
07C0003F00
0F80000F80
1F000007C0
3E000003C0
3C000001E0
780F0381F0
780781E0F0
700791E0F0
F047D3E078
F07FDFF078
E07FDFE078
E03F8FE078
E01F07C038
E000000038
E000000038
E000000078
F000000078
F000000078
F000000078
780FFF80F0
781FFFC0F0
7C1FFFC1E0
3C0FFF01E0
3E000003C0
1F000007C0
0F80000F80
07E0003F00
03F800FE00
01FF8FFC00
007FFFF000
003FFFC000
0007FF0000
ENDCHAR
STARTCHAR F11C
ENCODING 61724
SWIDTH 1131 0
DWIDTH 44 0
BBX 44 29 0 0
BITMAP
3FFFFFFFFFC0
7FFFFFFFFFE0
FFFFFFFFFFF0
E00000000070
E00000000070
E00000000070
E3870F1E1C70
E7878F1E3C70
E7878F1E3C70
E7878F1E1C70
E00000000070
E00000000070
E03070E1C070
E078F0E1E070
E078F0E1E070
E078F0E1E070
E00000000070
E00000000070
E00000000070
E787FFFE3C70
E787FFFE3C70
E787FFFE3C70
E38000001C70
E00000000070
E00000000070
E00000000070
FFFFFFFFFFF0
7FFFFFFFFFE0
3FFFFFFFFFC0
ENDCHAR
STARTCHAR F133
ENCODING 61747
SWIDTH 874 0
DWIDTH 34 0
BBX 34 39 0 -5
BITMAP
01F003E000
01F003E000
01F003E000
01F003E000
01F003E000
3FFFFFFF80
7FFFFFFF80
FFFFFFFFC0
FFFFFFFFC0
FFFFFFFFC0
FFFFFFFFC0
FFFFFFFFC0
F0000003C0
F0000003C0
F0000003C0
F0000003C0
F0000003C0
F0000003C0
F0000003C0
F0000003C0
F0000003C0
F0000003C0
F0000003C0
F0000003C0
F0000003C0
F0000003C0
F0000003C0
F0000003C0
F0000003C0
F0000003C0
F0000003C0
F0000003C0
F0000003C0
F0000003C0
F0000003C0
FFFFFFFFC0
FFFFFFFFC0
7FFFFFFF80
3FFFFFFF00
ENDCHAR
STARTCHAR F144
ENCODING 61764
SWIDTH 1002 0
DWIDTH 39 0
BBX 37 37 1 -4
BITMAP
0007FF0000
003FFFE000
00FFFFF000
01FE07FC00
03F000FE00
07C0003F00
0F80000F80
1F000007C0
3E000003C0
3C1E0001E0
781F0001F0
781FC000F0
701FF000F0
F01FF80078
F01FFE0078
E01FFF8078
E01FFFC078
E01FFFF038
E01FFFF038
E01FFFF038
E01FFFE078
F01FFF8078
F01FFE0078
F01FFC0078
781FF000F0
781FC000F0
7C1F0001E0
3C0E0001E0
3E000003C0
1F000007C0
0F80000F80
07E0003F00
03F800FE00
01FF8FFC00
007FFFF000
003FFFC000
0007FF0000
ENDCHAR
STARTCHAR F146
ENCODING 61766
SWIDTH 874 0
DWIDTH 34 0
BBX 34 34 0 -2
BITMAP
1FFFFFFE00
7FFFFFFF80
FFFFFFFFC0
FFFFFFFFC0
F0000003C0
F0000003C0
F0000003C0
F0000003C0
F0000003C0
F0000003C0
F0000003C0
F0000003C0
F0000003C0
F0000003C0
F0000003C0
F0FFFFC3C0
F1FFFFE3C0
F1FFFFE3C0
F1FFFFE3C0
F0FFFFC3C0
F0000003C0
F0000003C0
F0000003C0
F0000003C0
F0000003C0
F0000003C0
F0000003C0
F0000003C0
F0000003C0
F0000003C0
F0000003C0
FFFFFFFFC0
FFFFFFFFC0
7FFFFFFF80
ENDCHAR
STARTCHAR F14A
ENCODING 61770
SWIDTH 874 0
DWIDTH 34 0
BBX 34 34 0 -2
BITMAP
1FFFFFFE00
7FFFFFFF80
FFFFFFFFC0
FFFFFFFFC0
F0000003C0
F0000003C0
F0000003C0
F0000003C0
F0000003C0
F0000043C0
F00000E3C0
F00001F3C0
F00003F3C0
F00007E3C0
F0000FC3C0
F0801F83C0
F1C03F03C0
F3E0FE03C0
F3F1FC03C0
F1FBF803C0
F0FFF003C0
F07FE003C0
F03FC003C0
F01F8003C0
F00F0003C0
F0040003C0
F0000003C0
F0000003C0
F0000003C0
F0000003C0
F0000003C0
FFFFFFFFC0
FFFFFFFFC0
7FFFFFFF80
ENDCHAR
STARTCHAR F14D
ENCODING 61773
SWIDTH 1131 0
DWIDTH 44 0
BBX 44 39 0 -5
BITMAP
0000001E0000
0000003F0000
0000003F8000
0000003FC000
0000003BE000
7FFE0039F000
7FFC0038F800
FFF800387C00
F0000FF83E00
F000FFF81F00
F007FFF80F80
F00FFFF807C0
F01FE00003E0
F03F000001F0
F07C000000F0
F0F8000001F0
F0F0000003E0
F0E0000007C0
F1E00FF80F80
F1E03FF81F00
F1E07FF83E00
F1E0FF387C00
F1E1F038F800
F0E1E039F000
F0F1E03BE000
F0F1E03FC000
F079E03F8000
F07DE03F0000
F03FE01E0000
F01FE0000000
F00FE0000000
F007C000C000
F0000003C000
F0000003C000
F0000003C000
FFFFFFFFC000
FFFFFFFFC000
7FFFFFFF8000
3FFFFFFF0000
ENDCHAR
STARTCHAR F14E
ENCODING 61774
SWIDTH 1002 0
DWIDTH 39 0
BBX 37 37 1 -4
BITMAP
0007FF0000
003FFFE000
00FFFFF000
01FE07FC00
03F000FE00
07C0003F00
0F80000F80
1F000007C0
3E000383C0
3C000781E0
78000F81F0
78001F80F0
70003F80F0
F0007F0078
F000FF0078
E001FF0078
E0038F0078
E003070038
E003060038
E007060038
E0078E0078
F007FC0078
F007F80078
F00FF00078
780FE000F0
780FC000F0
7C0F8001E0
3C1F0001E0
3E0E0003C0
1F000007C0
0F80000F80
07E0003F00
03F800FE00
01FF8FFC00
007FFFF000
003FFFC000
0007FF0000
ENDCHAR
STARTCHAR F150
ENCODING 61776
SWIDTH 874 0
DWIDTH 34 0
BBX 34 34 0 -2
BITMAP
1FFFFFFE00
7FFFFFFF80
FFFFFFFFC0
FFFFFFFFC0
F0000003C0
F0000003C0
F0000003C0
F0000003C0
F0000003C0
F0000003C0
F0000003C0
F0000003C0
F0000003C0
F0000003C0
F07FFF83C0
F07FFF83C0
F03FFF03C0
F01FFE03C0
F00FFC03C0
F007F803C0
F003F003C0
F001E003C0
F000C003C0
F0000003C0
F0000003C0
F0000003C0
F0000003C0
F0000003C0
F0000003C0
F0000003C0
F0000003C0
FFFFFFFFC0
FFFFFFFFC0
7FFFFFFF80
ENDCHAR
STARTCHAR F151
ENCODING 61777
SWIDTH 874 0
DWIDTH 34 0
BBX 34 34 0 -2
BITMAP
1FFFFFFE00
7FFFFFFF80
FFFFFFFFC0
FFFFFFFFC0
F0000003C0
F0000003C0
F0000003C0
F0000003C0
F0000003C0
F0000003C0
F0000003C0
F0000003C0
F000C003C0
F001E003C0
F003F003C0
F007F803C0
F00FFC03C0
F01FFE03C0
F03FFF03C0
F07FFF83C0
F07FFF83C0
F0000003C0
F0000003C0
F0000003C0
F0000003C0
F0000003C0
F0000003C0
F0000003C0
F0000003C0
F0000003C0
F0000003C0
FFFFFFFFC0
FFFFFFFFC0
7FFFFFFF80
ENDCHAR
STARTCHAR F152
ENCODING 61778
SWIDTH 874 0
DWIDTH 34 0
BBX 34 34 0 -2
BITMAP
1FFFFFFE00
7FFFFFFF80
FFFFFFFFC0
FFFFFFFFC0
F0000003C0
F0000003C0
F0000003C0
F0000003C0
F0000003C0
F0060003C0
F0070003C0
F0078003C0
F007C003C0
F007E003C0
F007F003C0
F007F803C0
F007FC03C0
F007FE03C0
F007FC03C0
F007F803C0
F007F003C0
F007E003C0
F007C003C0
F0078003C0
F0070003C0
F0020003C0
F0000003C0
F0000003C0
F0000003C0
F0000003C0
F0000003C0
FFFFFFFFC0
FFFFFFFFC0
7FFFFFFF80
ENDCHAR
STARTCHAR F15B
ENCODING 61787
SWIDTH 745 0
DWIDTH 29 0
BBX 29 39 0 -5
BITMAP
3FFFF800
7FFFFC00
FFFFFE00
FFFFFF00
F000EF80
F000E7C0
F000E3E0
F000E1F0
F000E0F8
F000E078
F000FFF8
F000FFF8
F000FFF8
F0000038
F0000038
F0000038
F0000038
F0000038
F0000038
F0000038
F0000038
F0000038
F0000038
F0000038
F0000038
F0000038
F0000038
F0000038
F0000038
F0000038
F0000038
F0000038
F0000038
F0000038
F0000038
FFFFFFF8
FFFFFFF8
7FFFFFF0
3FFFFFE0
ENDCHAR
STARTCHAR F15C
ENCODING 61788
SWIDTH 745 0
DWIDTH 29 0
BBX 29 39 0 -5
BITMAP
3FFFF800
7FFFFC00
FFFFFE00
FFFFFF00
F000EF80
F000E7C0
F000E3E0
F000E1F0
F000E0F8
F000E078
F000FFF8
F000FFF8
F000FFF8
F0000038
F0000038
F0000038
F0000038
F0000038
F1FFFC38
F1FFFC38
F1FFFC38
F1FFFC38
F0000038
F0000038
F0FFFC38
F1FFFC38
F1FFFC38
F1FFFC38
F0000038
F0000038
F0000038
F0000038
F0000038
F0000038
F0000038
FFFFFFF8
FFFFFFF8
7FFFFFF0
3FFFFFE0
ENDCHAR
STARTCHAR F164
ENCODING 61796
SWIDTH 1002 0
DWIDTH 39 0
BBX 36 39 0 -5
BITMAP
00001F0000
00003F8000
00007FC000
00007FE000
0000F1E000
0000F0F000
0000F0F000
0000E0F000
0001E0F000
0003E0F000
0007C0E000
000781FE00
000F01FF80
001F03FFE0
003E03FFE0
7FFC0001F0
FFF80000F0
FFF0000070
FFC0000070
FFC00000F0
FFC00000F0
FFC00000F0
FFC00000F0
FFC00000F0
FFC00000E0
FFC00001E0
FFC00001E0
FFC00001E0
FFC00001E0
FFC00003C0
FFC00003C0
F3C00003C0
E1F0000380
E1FE000780
F7FFC00F80
FFFFFFFF00
FF8FFFFF00
3F01FFFC00
00001FF000
ENDCHAR
STARTCHAR F165
ENCODING 61797
SWIDTH 1002 0
DWIDTH 39 0
BBX 36 39 0 -5
BITMAP
00003FF800
0001FFFE00
3F0FFFFF00
FFFFFFFF00
FFFF800780
FFFC000780
FFE0000380
FFC00003C0
FFC00003C0
FFC00001C0
FFC00001E0
FFC00001E0
FFC00001E0
FFC00001E0
FFC00000E0
FFC00000F0
FFC00000E0
FFC00001F0
FFC00000F0
E3C0000070
E1C0000070
E3F0000070
FFF80000F0
FFFC0001F0
FFBE03FFE0
3F1F03FFC0
000F01FF80
000781E000
0007C0F000
0003E0F000
0001E0F000
0000E0F000
0000F0F000
0000F0F000
0000F1E000
00007FE000
00007FC000
00003F8000
00001E0000
ENDCHAR
STARTCHAR F185
ENCODING 61829
SWIDTH 1002 0
DWIDTH 39 0
BBX 37 39 1 -5
BITMAP
0000700000
0000F80000
0001F80000
01C1DC1800
03F1DC7E00
03FBDFFE00
03FF8FFE00
039F8FCE00
038E031E00
01C0001C00
01C3FC1C00
3FC7FF1FE0
FF8FFF9FF0
FF9F8FCFF8
E03E03E038
F07C01E078
7C7800F1F0
3C7800F3E0
1E7000F3C0
0E7000F380
1E7000F3C0
3C7800F3E0
787800F0F0
F03C01E078
F03E03E078
FF9FFFCFF8
7F8FFF9FF0
1FC7FF1FC0
01C1FC1C00
01C0001C00
038F079E00
039F8FCE00
03FF8FFE00
03FBDEFE00
03F1DC7C00
00C1DC1800
0001F80000
0000F80000
0000700000
ENDCHAR
STARTCHAR F186
ENCODING 61830
SWIDTH 1002 0
DWIDTH 39 0
BBX 35 39 2 -5
BITMAP
0001FF0000
000FFF8000
003FFF8000
00FFFFC000
01FC07C000
03F00F8000
07C01F8000
0F803E0000
1F007C0000
3E00780000
3C00F00000
7C00F00000
7801E00000
7001E00000
F001E00000
F001E00000
F001E00000
E001E00000
E001E00000
E000E00000
E000F00000
F000F00000
F000780000
F0007C0000
F0003F0000
78001FC000
78000FFFC0
7C0007FFE0
3C0001FFE0
1E00001FE0
1F000003E0
0F800007C0
07C0000FC0
03F0003F80
01FC00FE00
00FFFFFC00
003FFFF000
000FFFE000
0001FE0000
ENDCHAR
STARTCHAR F191
ENCODING 61841
SWIDTH 874 0
DWIDTH 34 0
BBX 34 34 0 -2
BITMAP
1FFFFFFE00
7FFFFFFF80
FFFFFFFFC0
FFFFFFFFC0
F0000003C0
F0000003C0
F0000003C0
F0000003C0
F0000003C0
F0001803C0
F0003803C0
F0007803C0
F000F803C0
F001F803C0
F003F803C0
F007F803C0
F00FF803C0
F01FF803C0
F00FF803C0
F007F803C0
F003F803C0
F001F803C0
F000F803C0
F0007803C0
F0003803C0
F0001003C0
F0000003C0
F0000003C0
F0000003C0
F0000003C0
F0000003C0
FFFFFFFFC0
FFFFFFFFC0
7FFFFFFF80
ENDCHAR
STARTCHAR F192
ENCODING 61842
SWIDTH 1002 0
DWIDTH 39 0
BBX 37 37 1 -4
BITMAP
0007FF0000
003FFFE000
00FFFFF000
01FE07FC00
03F000FE00
07C0003F00
0F80000F80
1F000007C0
3E000003C0
3C000001E0
78000001F0
78000000F0
70007000F0
F001FC0078
F003FE0078
E007FF0078
E007FF0078
E00FFF0038
E00FFF8038
E00FFF0038
E007FF0078
F007FF0078
F003FE0078
F001FC0078
78002000F0
78000000F0
7C000001E0
3C000001E0
3E000003C0
1F000007C0
0F80000F80
07E0003F00
03F800FE00
01FF8FFC00
007FFFF000
003FFFC000
0007FF0000
ENDCHAR
STARTCHAR F1AD
ENCODING 61869
SWIDTH 874 0
DWIDTH 34 0
BBX 34 39 0 -5
BITMAP
1FFFFFFE00
3FFFFFFF00
3FFFFFFF00
3FFFFFFF00
3C00000F00
3C00000F00
3C00000F00
3C3C0F0F00
3C3E1F0F00
3C3E1F0F00
3C3E1F0F00
3C3E1F0F00
3C00000F00
3C00000F00
3C00000F00
3C3E1F0F00
3C3E1F0F00
3C3E1F0F00
3C3E1F0F00
3C00000F00
3C00000F00
3C00000F00
3C3E1F0F00
3C3E1F0F00
3C3E1F0F00
3C3E1F0F00
3C3C0F0F00
3C00000F00
3C00000F00
3C01E00F00
3C01E00F00
3C01E00F00
3C01E00F00
3C01E00F00
3C01E00F00
FFFFFFFFC0
FFFFFFFFC0
FFFFFFFFC0
FFFFFFFFC0
ENDCHAR
STARTCHAR F1C1
ENCODING 61889
SWIDTH 745 0
DWIDTH 29 0
BBX 29 39 0 -5
BITMAP
3FFFF800
7FFFFC00
FFFFFE00
FFFFFF00
F000EF80
F000E7C0
F000E3E0
F000E1F0
F000E0F8
F000E078
F000FFF8
F000FFF8
F000FFF8
F0000038
F0000038
F00E0038
F00E0038
F00E0038
F00E0038
F00E0038
F0060038
F00F0038
F00F0038
F0198038
F018FE38
F037F238
F03E3E38
F0F00038
F1E00038
F3E00038
F3C00038
F1000038
F0000038
F0000038
F0000038
FFFFFFF8
FFFFFFF8
7FFFFFF0
3FFFFFE0
ENDCHAR
STARTCHAR F1C2
ENCODING 61890
SWIDTH 745 0
DWIDTH 29 0
BBX 29 39 0 -5
BITMAP
3FFFF800
7FFFFC00
FFFFFE00
FFFFFF00
F000EF80
F000E7C0
F000E3E0
F000E1F0
F000E0F8
F000E078
F000FFF8
F000FFF8
F000FFF8
F0000038
F0000038
F0000038
F0000038
F0000038
F0000038
F1830C38
F1C71C38
F1C71C38
F1C79C38
F0EF9C38
F0EF9838
F0EDB838
F0EDB838
F07DF838
F07CF038
F078F038
F078F038
F0386038
F0000038
F0000038
F0000038
FFFFFFF8
FFFFFFF8
7FFFFFF0
3FFFFFE0
ENDCHAR
STARTCHAR F1C3
ENCODING 61891
SWIDTH 745 0
DWIDTH 29 0
BBX 29 39 0 -5
BITMAP
3FFFF800
7FFFFC00
FFFFFE00
FFFFFF00
F000EF80
F000E7C0
F000E3E0
F000E1F0
F000E0F8
F000E078
F000FFF8
F000FFF8
F000FFF8
F0000038
F0000038
F0000038
F0000038
F0707838
F078F038
F078F038
F03DE038
F03DE038
F01FC038
F00F8038
F00F8038
F01FC038
F01FC038
F03DE038
F03DF038
F078F038
F078F838
F0707038
F0000038
F0000038
F0000038
FFFFFFF8
FFFFFFF8
7FFFFFF0
3FFFFFE0
ENDCHAR
STARTCHAR F1C4
ENCODING 61892
SWIDTH 745 0
DWIDTH 29 0
BBX 29 39 0 -5
BITMAP
3FFFF800
7FFFFC00
FFFFFE00
FFFFFF00
F000EF80
F000E7C0
F000E3E0
F000E1F0
F000E0F8
F000E078
F000FFF8
F000FFF8
F000FFF8
F0000038
F0000038
F0000038
F0000038
F07FC038
F07FE038
F07FE038
F078F038
F078F038
F078F038
F078F038
F07FF038
F07FE038
F07FC038
F0780038
F0780038
F0780038
F0780038
F0300038
F0000038
F0000038
F0000038
FFFFFFF8
FFFFFFF8
7FFFFFF0
3FFFFFE0
ENDCHAR
STARTCHAR F1C5
ENCODING 61893
SWIDTH 745 0
DWIDTH 29 0
BBX 29 39 0 -5
BITMAP
3FFFF800
7FFFFC00
FFFFFE00
FFFFFF00
F000EF80
F000E7C0
F000E3E0
F000E1F0
F000E0F8
F000E078
F000FFF8
F000FFF8
F000FFF8
F0600038
F1F00038
F3F80038
F3F80038
F3F80038
F3F80038
F1F00038
F0600C38
F0001E38
F0003E38
F0407E38
F0E0FE38
F1F1FE38
F3FBFE38
F3FFFE38
F3FFFE38
F3FFFE38
F3FFFE38
F3FFFE38
F0000038
F0000038
F0000038
FFFFFFF8
FFFFFFF8
7FFFFFF0
3FFFFFE0
ENDCHAR
STARTCHAR F1C6
ENCODING 61894
SWIDTH 745 0
DWIDTH 29 0
BBX 29 39 0 -5
BITMAP
3FFFF800
7FFFFC00
FFFFFE00
FFFFFF00
F030EF80
F00EE7C0
F00EE3E0
F030E1F0
F030E0F8
F030E078
F00EFFF8
F00EFFF8
F030FFF8
F0300038
F0300038
F00E0038
F00E0038
F0300038
F0300038
F03C0038
F07E0038
F07E0038
F07E0038
F07E0038
F07F0038
F07F0038
F0C30038
F0C10038
F0C30038
F0670038
F07E0038
F0180038
F0000038
F0000038
F0000038
FFFFFFF8
FFFFFFF8
7FFFFFF0
3FFFFFE0
ENDCHAR
STARTCHAR F1C7
ENCODING 61895
SWIDTH 745 0
DWIDTH 29 0
BBX 29 39 0 -5
BITMAP
3FFFF800
7FFFFC00
FFFFFE00
FFFFFF00
F000EF80
F000E7C0
F000E3E0
F000E1F0
F000E0F8
F000E078
F000FFF8
F000FFF8
F000FFF8
F0000038
F0000038
F0000038
F0000038
F0000038
F0040038
F00E0038
F01E3038
F0FE7838
F1FE7838
F1FE3C38
F1FE3C38
F1FE3C38
F1FE7C38
F03E7838
F01E3038
F00E0038
F0000038
F0000038
F0000038
F0000038
F0000038
FFFFFFF8
FFFFFFF8
7FFFFFF0
3FFFFFE0
ENDCHAR
STARTCHAR F1C8
ENCODING 61896
SWIDTH 745 0
DWIDTH 29 0
BBX 29 39 0 -5
BITMAP
3FFFF800
7FFFFC00
FFFFFE00
FFFFFF00
F000EF80
F000E7C0
F000E3E0
F000E1F0
F000E0F8
F000E078
F000FFF8
F000FFF8
F000FFF8
F0000038
F0000038
F0000038
F0000038
F0000038
F0000038
F3FF8638
F3FF8E38
F3FF9E38
F3FFBE38
F3FFFE38
F3FFFE38
F3FFFE38
F3FFBE38
F3FF9E38
F3FF8E38
F1FF0638
F0000038
F0000038
F0000038
F0000038
F0000038
FFFFFFF8
FFFFFFF8
7FFFFFF0
3FFFFFE0
ENDCHAR
STARTCHAR F1C9
ENCODING 61897
SWIDTH 745 0
DWIDTH 29 0
BBX 29 39 0 -5
BITMAP
3FFFF800
7FFFFC00
FFFFFE00
FFFFFF00
F000EF80
F000E7C0
F000E3E0
F000E1F0
F000E0F8
F000E078
F000FFF8
F000FFF8
F000FFF8
F0000038
F0000038
F0000038
F0018038
F001C038
F001C038
F003C038
F0E3B838
F1F3BC38
F3E7BE38
F7C79F38
F7870FB8
F3C71F38
F1EF3E38
F0EE3838
F04E1038
F01E0038
F01C0038
F01C0038
F0000038
F0000038
F0000038
FFFFFFF8
FFFFFFF8
7FFFFFF0
3FFFFFE0
ENDCHAR
STARTCHAR F1CD
ENCODING 61901
SWIDTH 1002 0
DWIDTH 39 0
BBX 37 37 1 -4
BITMAP
0007FF0000
003FFFE000
00FFFFF000
01FE07FC00
03F000FE00
07E0003F00
0FF0007F80
1FF800FFC0
3FFC01FFC0
3FFFFFFFE0
7FFFFFFFF0
7BFFFFFEF0
71FF8FFCF0
F0FE03F878
F07C01F078
F07800F078
E07800F078
E07000F038
E070007038
E07000F038
E07800F078
F07800F078
F07C01F078
F0FE03F878
79FFFFFCF0
7BFFFFFEF0
7FFFFFFFE0
3FFFFFFFE0
3FFC01FFC0
1FF800FFC0
0FF0007F80
07E0003F00
03F800FE00
01FF8FFC00
007FFFF000
003FFFC000
0007FF0000
ENDCHAR
STARTCHAR F1D8
ENCODING 61912
SWIDTH 1002 0
DWIDTH 39 0
BBX 39 39 0 -5
BITMAP
0000000078
00000000FC
00000003FE
0000000FFE
0000003FDE
0000007F1E
000001FC1C
000007F81C
00001FE03C
00003F803C
0000FE003C
0003FC0C3C
000FF03C3C
001FC07838
007F00F838
01FE01F078
03F803E078
0FE007C078
3F800FC078
7F003F8070
FC007F0070
F000FF00F0
F801FE00F0
FF03FC00F0
7FC7FC00F0
1FFFF800F0
07FFF000E0
00FFF000E0
003FF001E0
001FFC01E0
001FFF81E0
001E7FE1E0
001E7FFDE0
001EF3FFC0
001FF07FC0
001FE01F80
001FC00700
000F800000
0007000000
ENDCHAR
STARTCHAR F1E3
ENCODING 61923
SWIDTH 977 0
DWIDTH 38 0
BBX 38 37 0 -4
BITMAP
0007FF8000
001FFFE000
007FFFF800
01FFFFFC00
03F9FE7F00
07E0781F80
0F80300F80
1F003007C0
1E003003E0
3E003001E0
3E003001F0
7E003001F0
7E00F803F8
7E01FE03F8
FFE3FF1FF8
FFFFFFFFF8
FC7FFFF8FC
F80FFFC07C
F00FFF803C
F007FF803C
F007FF803C
F007FF0038
F003FF0078
7803FF0078
7807FF8078
780E0380F0
3C1C01C0F0
3F1C00E7E0
1FF8007FE0
0FF8007FC0
0FF8007F80
07FC00FF00
03FC00FE00
01FF87FC00
007FFFF800
001FFFE000
0007FF0000
ENDCHAR
STARTCHAR F1EA
ENCODING 61930
SWIDTH 1131 0
DWIDTH 44 0
BBX 44 29 0 0
BITMAP
03FFFFFFFFE0
07FFFFFFFFF0
7FFFFFFFFFF0
FF80000000F0
FF80000000F0
FF80000000F0
F780000000F0
F78FFF1FF0F0
F78FFF1FF0F0
F78FFF1FF0F0
F78E071FF0F0
F78E070000F0
F78E070000F0
F78FFF1FF0F0
F78FFF1FF0F0
F78FFF1FF0F0
F780000000F0
F780000000F0
F78FFF1FF0F0
F78FFF1FF0F0
F78FFF1FF0F0
F78FFF1FF0F0
F780000000F0
F780000000F0
F780000000F0
FFFFFFFFFFF0
FFFFFFFFFFF0
7FFFFFFFFFF0
3FFFFFFFFFE0
ENDCHAR
STARTCHAR F1F6
ENCODING 61942
SWIDTH 1131 0
DWIDTH 44 0
BBX 44 39 0 -5
BITMAP
60000E000000
F0000F000000
F8001F000000
7E000F000000
3F007FE00000
1F81FFF80000
0FC3FFFC0000
07E7F0FE0000
01FF803F0000
00FF000F8000
007E00078000
003F0007C000
001F8003C000
000FC003C000
0007E001C000
0001F001E000
0040F801E000
00607C01E000
00783F01E000
00781F81E000
00780FC1E000
007007E1E000
00F001F1E000
00F000F8F000
01F0007CF800
03E0003F7C00
03C0001FFC00
0780000FFE00
07800007FE00
07800001FE00
07FFFFC0FE00
07FFFFE07C00
03FFFFF03F00
00FFFFFC1F80
000070E00FC0
000079C007E0
00003FC001F0
00003F8000E0
00000F000040
ENDCHAR
STARTCHAR F1F9
ENCODING 61945
SWIDTH 1002 0
DWIDTH 39 0
BBX 37 37 1 -4
BITMAP
0007FF0000
003FFFE000
00FFFFF000
01FE07FC00
03F000FE00
07C0003F00
0F80000F80
1F000007C0
3E03FE03C0
3C07FF81E0
781FFFC1F0
783FFFC0F0
703F87C0F0
F07E018078
F07C000078
E0F8000078
E0F8000078
E0F8000038
E0F8000038
E0F8000038
E0F8000078
F0FC000078
F07C008078
F07E01C078
783F8FE0F0
781FFFE0F0
7C0FFFC1E0
3C07FF81E0
3E01FC03C0
1F000007C0
0F80000F80
07E0003F00
03F800FE00
01FF8FFC00
007FFFF000
003FFFC000
0007FF0000
ENDCHAR
STARTCHAR F20A
ENCODING 61962
SWIDTH 1002 0
DWIDTH 39 0
BBX 39 29 0 0
BITMAP
3FFFFFFFF8
7FFFFFFFFC
FFFFFFFFFE
F00000001E
F00000001E
F00000001E
F00000001E
F03F007E1E
F0FFC1FF9E
F1FFE3FF9E
F1FFC7FF9E
F3E0CF811E
F3C00F001E
F3C00F001E
F3C00F001E
F3C00F001E
F3C00F801E
F3E1C7C31E
F1FFE7FF9E
F0FFE3FF9E
F07F81FF1E
F01E003C1E
F00000001E
F00000001E
F00000001E
FFFFFFFFFE
FFFFFFFFFE
7FFFFFFFFC
3FFFFFFFF8
ENDCHAR
STARTCHAR F247
ENCODING 62023
SWIDTH 1002 0
DWIDTH 39 0
BBX 39 34 0 -2
BITMAP
7E000000FC
FE000000FE
FFFFFFFFFE
C7FFFFFFCE
C7FFFFFFCE
FFFFFFFFFE
FE000000FE
FE000000FE
39FFFF0078
39FFFF0078
39FFFF0078
39C0070078
39C0070078
39C007FF78
39C007FF78
39C007FF78
39C0070778
39C0070778
39C0070778
39FFFF0778
39FFFF0778
39FFFF0778
3801C00778
3801C00778
3801FFFF78
3801FFFF78
3801FFFF78
FE000000FE
FE000000FE
FFFFFFFFFE
C7FFFFFFCE
C7FFFFFFCE
FFFFFFFFFE
FE000000FE
ENDCHAR
STARTCHAR F248
ENCODING 62024
SWIDTH 1131 0
DWIDTH 44 0
BBX 44 34 0 -2
BITMAP
7E00007E0000
FE0000FF0000
FFFFFFFF0000
C7FFFFE70000
C7FFFFE70000
FFFFFFFF0000
FE0000FF0000
FE00007E0000
3800003C0FF0
3800003C0FF0
3800003FFE70
3800003FFE70
3800003FFE70
3800003C0FF0
3800003C07F0
3800003C03C0
3800003C03C0
3800003C03C0
3800003C03C0
3800003C03C0
FE0000FF03C0
FE0000FF03C0
C7FFFFE703C0
C7FFFFE703C0
C7FFFFE703C0
FE03C0FF03C0
FE03C0FF03C0
000FE00007F0
000FE0000FF0
000FFFFFFFF0
000E7FFFFE70
000E7FFFFE70
000FFFFFFFF0
000FE0000FF0
ENDCHAR
STARTCHAR F249
ENCODING 62025
SWIDTH 874 0
DWIDTH 34 0
BBX 34 34 0 -2
BITMAP
1FFFFFFE00
7FFFFFFF80
FFFFFFFFC0
FFFFFFFFC0
F0000003C0
F0000003C0
F0000003C0
F0000003C0
F0000003C0
F0000003C0
F0000003C0
F0000003C0
F0000003C0
F0000003C0
F0000003C0
F0000003C0
F0000003C0
F0000003C0
F0000003C0
F0000003C0
F0000003C0
F00007FFC0
F00007FFC0
F00007FFC0
F00007FFC0
F0000707C0
F000070F80
F000071F00
F000073E00
F000077C00
F00007F800
FFFFFFF000
FFFFFFE000
7FFFFFC000
ENDCHAR
STARTCHAR F24D
ENCODING 62029
SWIDTH 1002 0
DWIDTH 39 0
BBX 39 39 0 -5
BITMAP
007FFFFFF8
00FFFFFFFC
01FFFFFFFE
01FFFFFFFE
01E000001E
01E000001E
01E000001E
3FE000001E
7FE000001E
FFE000001E
FFE000001E
F1E000001E
F1E000001E
F1E000001E
F1E000001E
F1E000001E
F1E000001E
F1E000001E
F1E000001E
F1E000001E
F1E000001E
F1E000001E
F1E000001E
F1E000001E
F1E000001E
F1E000001E
F1E000001E
F1E000001E
F1FFFFFFFE
F0FFFFFFFE
F0FFFFFFFC
F03FFFFFF0
F000000F00
F000000F00
F000000F00
FFFFFFFF00
FFFFFFFE00
7FFFFFFE00
3FFFFFFC00
ENDCHAR
STARTCHAR F254
ENCODING 62036
SWIDTH 745 0
DWIDTH 29 0
BBX 29 39 0 -5
BITMAP
FFFFFFF8
FFFFFFF8
FFFFFFF8
FFFFFFF8
780000F0
780000F0
780000F0
780000F0
380000E0
3C0001E0
3C0001E0
1E0001E0
1E0003C0
1F0007C0
0F000780
07800F80
07E03F00
03FCFE00
01FFFC00
00FFF800
01FFFC00
03F8FE00
07C01F00
0F800F80
0F000780
1F0003C0
1E0003C0
1C0001E0
3C0001E0
3C0001E0
380000E0
780000F0
780000F0
780000F0
780000F0
FFFFFFF8
FFFFFFF8
FFFFFFF8
FFFFFFF8
ENDCHAR
STARTCHAR F255
ENCODING 62037
SWIDTH 1002 0
DWIDTH 39 0
BBX 39 34 0 -2
BITMAP
0000380000
0008FE6000
007FFFFC00
00FFFFFE00
01FFC7FFF0
01E3878FFC
01E3870FFC
1FE3870F3E
7FE3870E1E
7FE1870E1E
FBE000001E
F1E000001E
F0E000001E
F0E000001E
F0E000001E
F0E000001E
F0C000001E
F00000001E
F00000001E
780000001E
7C0000001C
3E0000003C
3F0000003C
1F80000078
07C0000078
03E00000F0
01F00000F0
00F80000F0
007C0001E0
003C0001E0
001C0001E0
001FFFFFE0
001FFFFFE0
001FFFFFC0
ENDCHAR
STARTCHAR F256
ENCODING 62038
SWIDTH 874 0
DWIDTH 34 0
BBX 34 39 0 -5
BITMAP
0001F00000
0003F80000
0007FC0000
007FFFC000
00FF1FE000
01FF1FF000
01EF1CF000
01C71C7000
01C71C7000
01C71C7F00
01C71C7F80
01C71C7FC0
01C71C73C0
01C71C73C0
01C71C73C0
01C71C73C0
01C71C73C0
1FC71C73C0
7FC71C73C0
7FC71C73C0
FFC30863C0
F3C00003C0
F1C00003C0
F0C00003C0
78400003C0
7C000003C0
3C000003C0
1E000003C0
1F00000380
0F80000780
0780000780
03C0000780
03E0000700
01E0000F00
00F0000F00
00FFFFFF00
007FFFFE00
003FFFFE00
001FFFFC00
ENDCHAR
STARTCHAR F257
ENCODING 62039
SWIDTH 1002 0
DWIDTH 39 0
BBX 39 34 0 -2
BITMAP
00C0000000
07F8000000
0FFE002000
0FFFC1FC00
1F3FFBFE00
1E07FFFF80
1E01FF9FE0
1F003F87F8
0FC00701FC
0FF800007C
07FE00003E
00FFC0001E
1FFFF0001E
3FFFF8001E
7FFFF8001E
FFFFF0001E
F00000001E
F00000001E
F00000001E
FFFFF0001E
7FFFF8001E
3FFFF8001E
1FFF00001E
000F00001E
000F00001E
0007F0001E
0007F8001E
0003F0001E
0003C0001E
0003C003FC
0003E03FFC
0001FFFFF8
0001FFFFC0
0000FFF800
ENDCHAR
STARTCHAR F258
ENCODING 62040
SWIDTH 1131 0
DWIDTH 44 0
BBX 44 34 0 -2
BITMAP
1FFFFFF00000
7FFFFFFC0000
7FFFFFFE0000
FFFFFFFF0000
F000000F0000
F000000F8000
F00000078000
F8000003C000
7FFFFF03E000
3FFFFF81E000
1FFFFF80F000
00000780F800
000007007800
00000F003C00
00000F003E00
00FFFE001E00
01FFFE000F00
03FFFC000F80
07FFF8000780
0780000003C0
0F00000003E0
0F00000001E0
0FFFF00001E0
07FFFE0000F0
07FFFF8000F0
01FFFFF000F0
00000FF800F0
000001FC00F0
0000007C00F0
0000001C00F0
0000001C00F0
0000001FFFF0
0000001FFFF0
0000001FFFF0
ENDCHAR
STARTCHAR F259
ENCODING 62041
SWIDTH 1002 0
DWIDTH 39 0
BBX 39 39 0 -5
BITMAP
0003C00000
000FF00000
000FF01E00
001FF87F00
001E78FF80
00FE78FFC0
01FE38E3E0
03FE38E3F8
03FE3DE3FC
038E3DE3FE
03C71DC79E
03C71DC71E
03C71DC71E
01C71DC71E
01E78F8F1C
01E38F8E3C
01E38F8E3C
01E38F8E3C
00E3CF1E38
00F1C71C78
1EF1870C78
3FF0000078
7FF0000070
FFF0000070
F3F0000070
F1F0000070
F0F0000070
F8300000F0
7C000000F0
3E000000F0
1F800000E0
0FC00001E0
07E00001E0
03F00001E0
01F80003C0
007FFFFFC0
003FFFFFC0
001FFFFF80
000FFFFF00
ENDCHAR
STARTCHAR F25A
ENCODING 62042
SWIDTH 874 0
DWIDTH 34 0
BBX 34 39 0 -5
BITMAP
003C000000
00FE000000
01FF000000
01FF800000
01C7800000
01C7800000
01C7800000
01C7800000
01C7800000
01C7800000
01C7800000
01C7F00000
01C7FFC000
01C7FFFC00
01C7BFFF00
01C71EFF80
01C71C7FC0
1FC71C73C0
7FC71C73C0
7FC20863C0
FFC00003C0
F3C00003C0
F1C71C63C0
F0C71C63C0
78471C63C0
7C071C63C0
3C071C63C0
1E071C63C0
1F071C6780
0F871C6780
07871C6780
03C2082780
03E0000700
01E0000F00
00F0000F00
00FFFFFF00
007FFFFE00
003FFFFC00
001FFFF800
ENDCHAR
STARTCHAR F25B
ENCODING 62043
SWIDTH 874 0
DWIDTH 34 0
BBX 34 39 0 -5
BITMAP
0001E00000
0007F80000
000FFC0000
0E0FFC0000
3F8E1C0000
7FDE1E0000
FFEE1E0000
F1EE1E0000
F0EE1E0000
F0EE1E0000
F0FE1E0000
787E1E0000
787E1F8000
787E1FE000
3C3E1FEC00
3C3E1FFF00
1C1E1CFF80
1E1E1C7FC0
1E1E1C73C0
0F0E1C73C0
0F0C0863C0
0F000003C0
0F800003C0
1F000003C0
3E000003C0
3C000003C0
3C000003C0
3C000003C0
1E00000780
1E00000780
0F00000780
0F00000780
0780000700
07C0000F00
03C0000F00
03FFFFFF00
01FFFFFE00
00FFFFFC00
007FFFF800
ENDCHAR
STARTCHAR F25D
ENCODING 62045
SWIDTH 1002 0
DWIDTH 39 0
BBX 37 37 1 -4
BITMAP
0007FF0000
003FFFE000
00FFFFF000
01FE07FC00
03F000FE00
07C0003F00
0F80000F80
1F000007C0
3E1FF803C0
3C1FFF01E0
781FFF81F0
781FFF80F0
701F1FC0F0
F01F07C078
F01F07C078
E01F07C078
E01F0FC078
E01FFF8038
E01FFF8038
E01FFF0038
E01FFE0078
F01F3F0078
F01F1F0078
F01F1F8078
781F0F80F0
781F07C0F0
7C1F07C1E0
3C1F03E1E0
3E1F03E3C0
1F000007C0
0F80000F80
07E0003F00
03F800FE00
01FF8FFC00
007FFFF000
003FFFC000
0007FF0000
ENDCHAR
STARTCHAR F271
ENCODING 62065
SWIDTH 874 0
DWIDTH 34 0
BBX 34 39 0 -5
BITMAP
01F003E000
01F003E000
01F003E000
01F003E000
01F003E000
7FFFFFFF80
7FFFFFFF80
FFFFFFFFC0
FFFFFFFFC0
FFFFFFFFC0
FFFFFFFFC0
FFFFFFFFC0
F0000003C0
F0000003C0
F0000003C0
F001E003C0
F001E003C0
F001E003C0
F001E003C0
F001E003C0
F001E003C0
F07FFF83C0
F0FFFFC3C0
F0FFFFC3C0
F07FFF83C0
F001E003C0
F001E003C0
F001E003C0
F001E003C0
F001E003C0
F001E003C0
F000C003C0
F0000003C0
F0000003C0
F0000003C0
FFFFFFFFC0
FFFFFFFFC0
7FFFFFFF80
3FFFFFFF00
ENDCHAR
STARTCHAR F272
ENCODING 62066
SWIDTH 874 0
DWIDTH 34 0
BBX 34 39 0 -5
BITMAP
01F003E000
01F003E000
01F003E000
01F003E000
01F003E000
7FFFFFFF80
7FFFFFFF80
FFFFFFFFC0
FFFFFFFFC0
FFFFFFFFC0
FFFFFFFFC0
FFFFFFFFC0
F0000003C0
F0000003C0
F0000003C0
F0000003C0
F0000003C0
F0000003C0
F0000003C0
F0000003C0
F0000003C0
F07FFF83C0
F0FFFFC3C0
F0FFFFC3C0
F07FFF83C0
F0000003C0
F0000003C0
F0000003C0
F0000003C0
F0000003C0
F0000003C0
F0000003C0
F0000003C0
F0000003C0
F0000003C0
FFFFFFFFC0
FFFFFFFFC0
7FFFFFFF80
3FFFFFFF00
ENDCHAR
STARTCHAR F273
ENCODING 62067
SWIDTH 874 0
DWIDTH 34 0
BBX 34 39 0 -5
BITMAP
01F003E000
01F003E000
01F003E000
01F003E000
01F003E000
7FFFFFFF80
7FFFFFFF80
FFFFFFFFC0
FFFFFFFFC0
FFFFFFFFC0
FFFFFFFFC0
FFFFFFFFC0
F0000003C0
F0000003C0
F0000003C0
F0000003C0
F0180603C0
F03C0F03C0
F03E1F03C0
F01F3E03C0
F00FFC03C0
F007F803C0
F003F003C0
F003F003C0
F007F803C0
F00FFC03C0
F01F3E03C0
F03E1F03C0
F03C0F03C0
F0180603C0
F0000003C0
F0000003C0
F0000003C0
F0000003C0
F0000003C0
FFFFFFFFC0
FFFFFFFFC0
7FFFFFFF80
3FFFFFFF00
ENDCHAR
STARTCHAR F274
ENCODING 62068
SWIDTH 874 0
DWIDTH 34 0
BBX 34 39 0 -5
BITMAP
01F003E000
01F003E000
01F003E000
01F003E000
01F003E000
3FFFFFFF80
7FFFFFFF80
FFFFFFFFC0
FFFFFFFFC0
FFFFFFFFC0
FFFFFFFFC0
FFFFFFFFC0
F0000003C0
F0000003C0
F0000003C0
F0000003C0
F0000003C0
F0000383C0
F00007C3C0
F0000FC3C0
F0001F83C0
F0003F03C0
F0707E03C0
F0F8FC03C0
F0FDF803C0
F07FF003C0
F03FE003C0
F01FC003C0
F00F8003C0
F0070003C0
F0020003C0
F0000003C0
F0000003C0
F0000003C0
F0000003C0
FFFFFFFFC0
FFFFFFFFC0
7FFFFFFF80
3FFFFFFF00
ENDCHAR
STARTCHAR F279
ENCODING 62073
SWIDTH 1131 0
DWIDTH 44 0
BBX 44 34 0 -3
BITMAP
000300000180
001FE00007E0
007FFC001FE0
01FFFF00FFF0
07FFFFE3FEF0
3FE71FFFF8F0
7F8703FFE0F0
FE07007F00F0
F807001E00F0
F007001E00F0
F007001E00F0
F007001E00F0
F007001E00F0
F007001E00F0
F007001E00F0
F007001E00F0
F007001E00F0
F007001E00F0
F007001E00F0
F007001E00F0
F007001E00F0
F007001E00F0
F007001E00F0
F007001E00F0
F007001E00F0
F007001E00F0
F007001E01F0
F01FE01E07E0
F07FFC1E3FE0
F1FFFF9EFF80
FFF87FFFFE00
FFE00FFFF800
FF8001FFC000
7E00003F0000
ENDCHAR
STARTCHAR F27A
ENCODING 62074
SWIDTH 1131 0
DWIDTH 44 0
BBX 44 34 0 -2
BITMAP
00001F800000
0003FFFC0000
001FFFFF8000
007FFFFFE000
01FF801FF800
03F80003FC00
07E000007E00
0F8000003F00
1F0000000F80
3E00000007C0
7C00000003C0
7800000001E0
7800000001E0
F01F1F0F80E0
F03F9F9FC0F0
F03FBF9FC0F0
F03FBFDFC0F0
F03FBF9FC0F0
F01F1F9F80F0
F00E0E0701E0
7800000001E0
7800000003C0
3C00000007C0
3E0000000F80
1F8000001F00
0F8000003F00
07000000FE00
0F020007F800
1E0FFFFFF000
3C3FFFFFC000
78FFFFFE0000
FFFCFFE00000
FFF000000000
7F8000000000
ENDCHAR
STARTCHAR F28B
ENCODING 62091
SWIDTH 1002 0
DWIDTH 39 0
BBX 37 37 1 -4
BITMAP
0007FF0000
003FFFE000
00FFFFF000
01FE07FC00
03F000FE00
07C0003F00
0F80000F80
1F000007C0
3E000003C0
3C000001E0
78000001F0
781F8F80F0
701F8FC0F0
F01F8FC078
F01F8FC078
E01F8FC078
E01F8FC078
E01F8FC038
E01F8FC038
E01F8FC038
E01F8FC078
F01F8FC078
F01F8FC078
F01F8FC078
781F8FC0F0
780F8F80F0
7C000001E0
3C000001E0
3E000003C0
1F000007C0
0F80000F80
07E0003F00
03F800FE00
01FF8FFC00
007FFFF000
003FFFC000
0007FF0000
ENDCHAR
STARTCHAR F28D
ENCODING 62093
SWIDTH 1002 0
DWIDTH 39 0
BBX 37 37 1 -4
BITMAP
0007FF0000
003FFFE000
00FFFFF000
01FE07FC00
03F000FE00
07C0003F00
0F80000F80
1F000007C0
3E000003C0
3C000001E0
78000001F0
781FFF80F0
701FFFC0F0
F01FFFC078
F01FFFC078
E01FFFC078
E01FFFC078
E01FFFC038
E01FFFC038
E01FFFC038
E01FFFC078
F01FFFC078
F01FFFC078
F01FFFC078
781FFFC0F0
780FFF80F0
7C000001E0
3C000001E0
3E000003C0
1F000007C0
0F80000F80
07E0003F00
03F800FE00
01FF8FFC00
007FFFF000
003FFFC000
0007FF0000
ENDCHAR
STARTCHAR F2B5
ENCODING 62133
SWIDTH 1260 0
DWIDTH 49 0
BBX 49 34 0 -2
BITMAP
00007C1F800000
0003FFFFF00000
000FFFFFF80000
001FFFFFFC0000
003F07C03E0000
7C7C0F801F3F00
FFF80F000FFF80
FFF01F0007FF80
FFE03E0707FF80
FFC07C0F03FF80
FE00781F007F80
FE00783F807F80
FE00787FC07F80
FE007CFBC07F80
FE003FF1E07F80
FE003FF1F07F80
FE000FC0F87F80
FE000300787F80
FE0000003C7F80
FE0000003E7F80
FE0000001E7F80
FE0000000E7F80
EFC000000FF380
C7E000000FF380
EFF800001FF380
FFFC0000FFFF80
FE7E0001FC3F00
003F0003F80000
001F800FE00000
0007C01F800000
0003F1FF000000
0001FFFC000000
0000FFF8000000
00003FE0000000
ENDCHAR
STARTCHAR F2B6
ENCODING 62134
SWIDTH 1002 0
DWIDTH 39 0
BBX 39 39 0 -5
BITMAP
00007C0000
0001FF0000
0003FF8000
000FFFC000
001F83F000
003F01F800
007E00FC00
01F8007E00
03F0001F80
07E0000FC0
0FC00007E0
3F000003F0
7E000000FC
FC0000007C
F80000003E
F00000001E
F00000001E
F00000001E
F00000001E
F18000031E
F3C0000F9E
F3F0001F9E
F1F8003F1E
F0FC007E1E
F03E01F81E
F01F83F01E
F00FCFE01E
F007FFC01E
F001FF001E
F000FE001E
F00000001E
F00000001E
F00000001E
F00000001E
F00000001E
FFFFFFFFFE
FFFFFFFFFE
7FFFFFFFFC
3FFFFFFFF8
ENDCHAR
STARTCHAR F2B9
ENCODING 62137
SWIDTH 874 0
DWIDTH 34 0
BBX 34 39 0 -5
BITMAP
3FFFFFFC00
7FFFFFFE00
FFFFFFFE00
FFFFFFFF00
F000000F00
F000000F00
F000000F00
F000000FC0
F000000FC0
F000000FC0
F007E00FC0
F01FF00FC0
F01FF80F00
F03FF80F00
F03FFC0F00
F03FFC0F00
F03FFC0F00
F03FFC0FC0
F03FF80FC0
F01FF80FC0
F00FF00FC0
F003C00FC0
F0F81E0F00
F1FFFF8F00
F3FFFF8F00
F3FFFF8F00
F3FFFFCF00
F3FFFFCFC0
F1FFFF8FC0
F000000FC0
F000000FC0
F000000FC0
F000000F00
F000000F00
F000000F00
FFFFFFFF00
FFFFFFFE00
7FFFFFFE00
3FFFFFFC00
ENDCHAR
STARTCHAR F2BB
ENCODING 62139
SWIDTH 1002 0
DWIDTH 39 0
BBX 39 29 0 0
BITMAP
3FFFFFFFF8
7FFFFFFFFC
FFFFFFFFFE
F00000001E
F00000001E
F00000001E
F00000001E
F01E00001E
F03F80001E
F07F83FF1E
F07FC3FF1E
F07FC3FE1E
F07FC0001E
F07FC0001E
F03F83FE1E
F01F03FF1E
F060C3FF1E
F1FFF0001E
F3FFF8001E
F3FFF8001E
F3FFF8001E
F1FFF0001E
F00000001E
F00000001E
F00000001E
FFFFFFFFFE
FFFFFFFFFE
7FFFFFFFFC
3FFFFFFFF8
ENDCHAR
STARTCHAR F2BD
ENCODING 62141
SWIDTH 1002 0
DWIDTH 39 0
BBX 37 37 1 -4
BITMAP
0007FF0000
003FFFE000
00FFFFF000
01FE07FC00
03F000FE00
07C0003F00
0F80F80F80
1F03FE07C0
3E0FFF83C0
3C1FFFC1E0
783F07E1F0
783C03E0F0
707801F0F0
F07800F078
F07000F078
F07000F078
E07000F078
E07800F038
E07800F038
E07801F038
E03C03E078
F07F07F078
F0FFFFF878
F1FFFFFC78
7BF3FE7EF0
7BC0F01EF0
7F80000FE0
3F80000FE0
3F80000FC0
1F80000FC0
0F80000F80
07E0003F00
03F800FE00
01FF8FFC00
007FFFF000
003FFFC000
0007FF0000
ENDCHAR
STARTCHAR F2C1
ENCODING 62145
SWIDTH 745 0
DWIDTH 29 0
BBX 29 39 0 -5
BITMAP
3FFFFFE0
7FFFFFF8
FFFFFFF8
FFFFFFF8
FFFFFFF8
FFFFFFF8
F0000038
F0000038
F0000038
F0000038
F0000038
F0000038
F0078038
F01FC038
F03FE038
F03FF038
F07FF038
F07FF038
F07FF038
F03FF038
F03FE038
F01FC038
F0070038
F0F87838
F1FFFE38
F3FFFE38
F3FFFE38
F3FFFE38
F3FFFE38
F0000038
F0000038
F0000038
F0000038
F0000038
F0000038
FFFFFFF8
FFFFFFF8
7FFFFFF0
3FFFFFE0
ENDCHAR
STARTCHAR F2C2
ENCODING 62146
SWIDTH 1002 0
DWIDTH 39 0
BBX 39 29 0 0
BITMAP
7FFFFFFFF8
7FFFFFFFFC
FFFFFFFFFE
FFFFFFFFFE
FFFFFFFFFE
FFFFFFFFFE
F00000001E
F00000001E
F00000001E
F00000001E
F01F00001E
F03F83FE1E
F03F83FF1E
F03F83FF1E
F03F80001E
F03F80001E
F01F00001E
F071C3FF1E
F0FFE3FF1E
F1FFE3FE1E
F1FFE0001E
F0FFE0001E
F00000001E
F00000001E
F00000001E
FFFFFFFFFE
FFFFFFFFFE
7FFFFFFFFC
3FFFFFFFF8
ENDCHAR
STARTCHAR F2D0
ENCODING 62160
SWIDTH 1002 0
DWIDTH 39 0
BBX 39 34 0 -2
BITMAP
1FFFFFFFF0
7FFFFFFFFC
FFFFFFFFFE
FFFFFFFFFE
FFFFFFFFFE
FFFFFFFFFE
FFFFFFFFFE
FFFFFFFFFE
FFFFFFFFFE
FFFFFFFFFE
FFFFFFFFFE
FFFFFFFFFE
FFFFFFFFFE
F00000001E
F00000001E
F00000001E
F00000001E
F00000001E
F00000001E
F00000001E
F00000001E
F00000001E
F00000001E
F00000001E
F00000001E
F00000001E
F00000001E
F00000001E
F00000001E
F00000001E
F00000001E
FFFFFFFFFE
FFFFFFFFFE
7FFFFFFFFC
ENDCHAR
STARTCHAR F2D1
ENCODING 62161
SWIDTH 1002 0
DWIDTH 39 0
BBX 39 4 0 -2
BITMAP
7FFFFFFFFC
FFFFFFFFFE
FFFFFFFFFE
7FFFFFFFFC
ENDCHAR
STARTCHAR F2D2
ENCODING 62162
SWIDTH 1002 0
DWIDTH 39 0
BBX 39 39 0 -5
BITMAP
007FFFFFF8
00FFFFFFFC
01FFFFFFFE
01FFFFFFFE
01E000001E
01E000001E
01E000001E
3FFFFFF81E
7FFFFFFE1E
FFFFFFFE1E
FFFFFFFF1E
FFFFFFFF1E
FFFFFFFF1E
FFFFFFFF1E
FFFFFFFF1E
FFFFFFFF1E
FFFFFFFF1E
FFFFFFFF1E
FFFFFFFF1E
F000000F1E
F000000F1E
F000000F1E
F000000F1E
F000000F1E
F000000F1E
F000000F1E
F000000F1E
F000000F1E
F000000FFE
F000000FFE
F000000FFC
F000000FF0
F000000F00
F000000F00
F000000F00
FFFFFFFF00
FFFFFFFE00
7FFFFFFE00
3FFFFFFC00
ENDCHAR
STARTCHAR F2DC
ENCODING 62172
SWIDTH 874 0
DWIDTH 34 0
BBX 34 39 0 -5
BITMAP
0000C00000
0001E00000
0001E00000
0011E20000
0039E70000
003DEF0000
039FFE7000
038FFC7000
0387F87000
E383F071C0
F981E067C0
FFC1E0FFC0
3FC1E0FF00
0FC1E0FC00
07F1E3F800
3FF9E7FF80
FF7FFFBFC0
F81FFE07C0
4007F80080
0003F00000
600FFC0180
F83FFF07C0
FF7FFFBFC0
3FF9E7FF00
07E1E1F800
1FC1E0FE00
3FC1E0FF00
FDC1E0EFC0
F981E067C0
6383F071C0
0387F87000
038FFC7000
039FFE7000
003DEF0000
0039E70000
0011E20000
0001E00000
0001E00000
0000C00000
ENDCHAR
STARTCHAR F2ED
ENCODING 62189
SWIDTH 874 0
DWIDTH 34 0
BBX 34 39 0 -5
BITMAP
001FFE0000
003FFF0000
003FFF0000
007FFF8000
00F807C000
00F003C000
7FFFFFFF80
FFFFFFFFC0
FFFFFFFFC0
FFFFFFFFC0
3C00000F00
3C00000F00
3C00000F00
3C1C0E0F00
3C1E1E0F00
3C1E1E0F00
3C1E1E0F00
3C1E1E0F00
3C1E1E0F00
3C1E1E0F00
3C1E1E0F00
3C1E1E0F00
3C1E1E0F00
3C1E1E0F00
3C1E1E0F00
3C1E1E0F00
3C1E1E0F00
3C1E1E0F00
3C1E1E0F00
3C1E1E0F00
3C1E1E0F00
3C1C0E0F00
3C00000F00
3C00000F00
3C00000F00
3FFFFFFF00
1FFFFFFE00
1FFFFFFE00
0FFFFFFC00
ENDCHAR
STARTCHAR F302
ENCODING 62210
SWIDTH 1131 0
DWIDTH 44 0
BBX 44 34 0 -2
BITMAP
003FFFFFFF80
00FFFFFFFFE0
00FFFFFFFFE0
01FFFFFFFFF0
01E0000000F0
01E0000000F0
01E1E00000F0
01E3F00000F0
79E3F00200F0
F9E3F00700F0
F9E3F00F80F0
F1E1E01FC0F0
F1E0003FE0F0
F1E0607FF0F0
F1E0F0FFF0F0
F1E1F9FFF0F0
F1E1FFFFF0F0
F1E1FFFFF0F0
F1E1FFFFF0F0
F1E1FFFFF0F0
F1E0000000F0
F1E0000000F0
F1E0000000F0
F1FFFFFFFFF0
F1FFFFFFFFF0
F0FFFFFFFFE0
F07FFFFFFFC0
F00000000000
F00000000000
F00000000000
F00000007000
FFFFFFFFF000
FFFFFFFFF000
7FFFFFFFE000
ENDCHAR
STARTCHAR F328
ENCODING 62248
SWIDTH 745 0
DWIDTH 29 0
BBX 29 39 0 -5
BITMAP
000F8000
001FC000
003FE000
0038E000
0038E000
3FF8FFF0
7FFDFFF8
FFFFFFF8
F1FFFC78
F1FFFC38
F1FFFC38
F1FFFC38
F0000038
F0000038
F0000038
F0000038
F0000038
F0000038
F0000038
F0000038
F0000038
F0000038
F0000038
F0000038
F0000038
F0000038
F0000038
F0000038
F0000038
F0000038
F0000038
F0000038
F0000038
F0000038
F0000038
FFFFFFF8
FFFFFFF8
7FFFFFF0
3FFFFFE0
ENDCHAR
STARTCHAR F358
ENCODING 62296
SWIDTH 1002 0
DWIDTH 39 0
BBX 37 37 1 -4
BITMAP
0007FF0000
003FFFE000
00FFFFF000
01FE07FC00
03F000FE00
07C0003F00
0F80000F80
1F000007C0
3E000003C0
3C00F801E0
7800F801F0
7800F800F0
7000F800F0
F000F80078
F000F80078
E000F80078
E000F80078
E000F80038
E01FFFC038
E03FFFE038
E01FFFC078
F00FFF8078
F007FF0078
F003FE0078
7801FC00F0
7800F800F0
7C007001E0
3C002001E0
3E000003C0
1F000007C0
0F80000F80
07E0003F00
03F800FE00
01FF8FFC00
007FFFF000
003FFFC000
0007FF0000
ENDCHAR
STARTCHAR F359
ENCODING 62297
SWIDTH 1002 0
DWIDTH 39 0
BBX 37 37 1 -4
BITMAP
0007FF0000
003FFFE000
00FFFFF000
01FE07FC00
03F000FE00
07C0003F00
0F80000F80
1F000007C0
3E000003C0
3C000001E0
78004001F0
7800C000F0
7001C000F0
F003C00078
F007C00078
E00FC00078
E01FFFF078
E03FFFF038
E07FFFF038
E03FFFF038
E01FFFF078
F00FC00078
F007C00078
F003C00078
7801C000F0
7800C000F0
7C004001E0
3C000001E0
3E000003C0
1F000007C0
0F80000F80
07E0003F00
03F800FE00
01FF8FFC00
007FFFF000
003FFFC000
0007FF0000
ENDCHAR
STARTCHAR F35A
ENCODING 62298
SWIDTH 1002 0
DWIDTH 39 0
BBX 37 37 1 -4
BITMAP
0007FF0000
003FFFE000
00FFFFF000
01FE07FC00
03F000FE00
07C0003F00
0F80000F80
1F000007C0
3E000003C0
3C000001E0
78001001F0
78003800F0
70003C00F0
F0003E0078
F0003F0078
E0003F8078
E07FFFC078
E07FFFE038
E07FFFF038
E07FFFE038
E07FFFC078
F0003F8078
F0003F0078
F0003E0078
78003C00F0
78003800F0
7C001001E0
3C000001E0
3E000003C0
1F000007C0
0F80000F80
07E0003F00
03F800FE00
01FF8FFC00
007FFFF000
003FFFC000
0007FF0000
ENDCHAR
STARTCHAR F35B
ENCODING 62299
SWIDTH 1002 0
DWIDTH 39 0
BBX 37 37 1 -4
BITMAP
0007FF0000
003FFFE000
00FFFFF000
01FE07FC00
03F000FE00
07C0003F00
0F80000F80
1F000007C0
3E000003C0
3C002001E0
78007001F0
7800F800F0
7001FC00F0
F003FE0078
F007FF0078
E00FFF8078
E01FFFC078
E03FFFE038
E000F80038
E000F80038
E000F80078
F000F80078
F000F80078
F000F80078
7800F800F0
7800F800F0
7C00F801E0
3C00F801E0
3E000003C0
1F000007C0
0F80000F80
07E0003F00
03F800FE00
01FF8FFC00
007FFFF000
003FFFC000
0007FF0000
ENDCHAR
STARTCHAR F3A5
ENCODING 62373
SWIDTH 1131 0
DWIDTH 44 0
BBX 44 39 0 -5
BITMAP
00FFFFFFF000
01FFFFFFF800
03FFFFFFF800
03FFFFFFFC00
0783C03C3E00
0F87803C1E00
0F07801E0F00
1E0F001F0F80
3E0F000F07C0
3C1E000F83C0
781E000783E0
FFFFFFFFFFF0
FFFFFFFFFFF0
7FFFFFFFFFE0
3FFFFFFFFFC0
1E1E00078F80
1F1E000F0F00
0F8F000F1F00
07CF000E3E00
03C7001E7C00
01E7801E7800
01F3803CF000
00FBC03DF000
007BC03BE000
003DC07BC000
001FE0778000
001FE0FF0000
000FF0FF0000
0007F0FE0000
0003F1FC0000
0001F9F80000
0001FBF00000
0000FFE00000
00007FE00000
00003FC00000
00001F800000
00000F000000
00000E000000
000006000000
ENDCHAR
STARTCHAR F3D1
ENCODING 62417
SWIDTH 1260 0
DWIDTH 49 0
BBX 49 29 0 0
BITMAP
FFFFFFFFFFFF00
FFFFFFFFFFFF80
FFFFFFFFFFFF80
FFC0000001FF80
FFC0000001FF80
FF80000001FF80
FF8003E000FF80
FF000FF800FF80
FE001FFC007F80
F0003FFC000F80
F0003C3E000780
F000783E000780
F000783E000780
F0007C3F000780
F0007E3F000780
F0007E3F000780
F0007E3E000780
F000780E000780
F000380E000780
F8003FFC001F80
FE001FF8007F80
FF000FF000FF80
FF8003E000FF80
FF80000001FF80
FFC0000001FF80
FFFFFFFFFFFF80
FFFFFFFFFFFF80
FFFFFFFFFFFF80
7FFFFFFFFFFF00
ENDCHAR
STARTCHAR F410
ENCODING 62480
SWIDTH 1002 0
DWIDTH 39 0
BBX 39 34 0 -2
BITMAP
1FFFFFFFF0
7FFFFFFFFC
FFFFFFFFFE
FFFFFFFFFE
F00000001E
F00000001E
F00000001E
F00000001E
F00000001E
F00000001E
F00701C01E
F00F83E01E
F00FC7E01E
F007EFC01E
F003FF801E
F001FF001E
F000FE001E
F000FE001E
F001FF001E
F003FF801E
F007EFC01E
F00FC7E01E
F00F83E01E
F00F03E01E
F00601C01E
F00000001E
F00000001E
F00000001E
F00000001E
F00000001E
F00000001E
FFFFFFFFFE
FFFFFFFFFE
7FFFFFFFFC
ENDCHAR
ENDFONT
